<svg xmlns="http://www.w3.org/2000/svg" xmlns:xlink="http://www.w3.org/1999/xlink" contentStyleType="text/css" height="374px" preserveAspectRatio="none" style="width:456px;height:374px;background:#00000000;" version="1.1" viewBox="0 0 456 374" width="456px" zoomAndPan="magnify"><defs/><g><rect fill="#E6E1E3" height="283.0625" style="stroke:#2094F3;stroke-width:1.0;" width="10" x="75.5" y="46.2969"/><rect fill="#E6E1E3" height="29.1328" style="stroke:#2094F3;stroke-width:1.0;" width="10" x="235.5" y="81.4297"/><rect fill="#E6E1E3" height="30" style="stroke:#2094F3;stroke-width:1.0;" width="10" x="235.5" y="270.3594"/><rect fill="#E6E1E3" height="29.1328" style="stroke:#2094F3;stroke-width:1.0;" width="10" x="359.5" y="187.9609"/><rect fill="none" height="196.7969" style="stroke:#2094F3;stroke-width:1.5;" width="440" x="10" y="125.5625"/><rect fill="none" height="165.6641" style="stroke:#2094F3;stroke-width:1.5;" width="420" x="20" y="149.6953"/><rect fill="none" height="76.2656" style="stroke:#2094F3;stroke-width:1.5;" width="269" x="30" y="232.0938"/><line style="stroke:#2094F3;stroke-width:0.5;stroke-dasharray:5.0,5.0;" x1="80" x2="80" y1="36.2969" y2="339.3594"/><line style="stroke:#2094F3;stroke-width:0.5;stroke-dasharray:5.0,5.0;" x1="240" x2="240" y1="36.2969" y2="339.3594"/><line style="stroke:#2094F3;stroke-width:0.5;stroke-dasharray:5.0,5.0;" x1="364" x2="364" y1="36.2969" y2="339.3594"/><rect fill="#E6E1E3" height="30.2969" rx="2.5" ry="2.5" style="stroke:#2094F3;stroke-width:0.5;" width="81" x="40" y="5"/><text fill="#1E2129" font-family="sans-serif" font-size="14" font-weight="bold" lengthAdjust="spacing" textLength="67" x="47" y="24.9951">Program</text><rect fill="#E6E1E3" height="30.2969" rx="2.5" ry="2.5" style="stroke:#2094F3;stroke-width:0.5;" width="81" x="40" y="338.3594"/><text fill="#1E2129" font-family="sans-serif" font-size="14" font-weight="bold" lengthAdjust="spacing" textLength="67" x="47" y="358.3545">Program</text><rect fill="#E6E1E3" height="30.2969" rx="2.5" ry="2.5" style="stroke:#2094F3;stroke-width:0.5;" width="97" x="192" y="5"/><text fill="#1E2129" font-family="sans-serif" font-size="14" font-weight="bold" lengthAdjust="spacing" textLength="83" x="199" y="24.9951">DbContext</text><rect fill="#E6E1E3" height="30.2969" rx="2.5" ry="2.5" style="stroke:#2094F3;stroke-width:0.5;" width="97" x="192" y="338.3594"/><text fill="#1E2129" font-family="sans-serif" font-size="14" font-weight="bold" lengthAdjust="spacing" textLength="83" x="199" y="358.3545">DbContext</text><rect fill="#E6E1E3" height="30.2969" rx="2.5" ry="2.5" style="stroke:#2094F3;stroke-width:0.5;" width="131" x="299" y="5"/><text fill="#1E2129" font-family="sans-serif" font-size="14" font-weight="bold" lengthAdjust="spacing" textLength="117" x="306" y="24.9951">KafkaProducer</text><rect fill="#E6E1E3" height="30.2969" rx="2.5" ry="2.5" style="stroke:#2094F3;stroke-width:0.5;" width="131" x="299" y="338.3594"/><text fill="#1E2129" font-family="sans-serif" font-size="14" font-weight="bold" lengthAdjust="spacing" textLength="117" x="306" y="358.3545">KafkaProducer</text><rect fill="#E6E1E3" height="283.0625" style="stroke:#2094F3;stroke-width:1.0;" width="10" x="75.5" y="46.2969"/><rect fill="#E6E1E3" height="29.1328" style="stroke:#2094F3;stroke-width:1.0;" width="10" x="235.5" y="81.4297"/><rect fill="#E6E1E3" height="30" style="stroke:#2094F3;stroke-width:1.0;" width="10" x="235.5" y="270.3594"/><rect fill="#E6E1E3" height="29.1328" style="stroke:#2094F3;stroke-width:1.0;" width="10" x="359.5" y="187.9609"/><ellipse cx="53" cy="51.5469" fill="none" rx="4" ry="4" style="stroke:#2094F3;stroke-width:1.5;"/><polygon fill="#2094F3" points="63.5,48.2969,73.5,52.2969,63.5,56.2969,67.5,52.2969" style="stroke:#2094F3;stroke-width:1.0;"/><line style="stroke:#2094F3;stroke-width:1.0;" x1="57.5" x2="69.5" y1="52.2969" y2="52.2969"/><polygon fill="#2094F3" points="223.5,77.4297,233.5,81.4297,223.5,85.4297,227.5,81.4297" style="stroke:#2094F3;stroke-width:1.0;"/><line style="stroke:#2094F3;stroke-width:1.0;" x1="85.5" x2="229.5" y1="81.4297" y2="81.4297"/><text fill="#E6E1E3" font-family="sans-serif" font-size="13" font-weight="bold" lengthAdjust="spacing" textLength="107" x="92.5" y="76.3638">DateTime.Now</text><polygon fill="#2094F3" points="96.5,106.5625,86.5,110.5625,96.5,114.5625,92.5,110.5625" style="stroke:#2094F3;stroke-width:1.0;"/><line style="stroke:#2094F3;stroke-width:1.0;stroke-dasharray:2.0,2.0;" x1="90.5" x2="239.5" y1="110.5625" y2="110.5625"/><text fill="#E6E1E3" font-family="sans-serif" font-size="13" font-weight="bold" lengthAdjust="spacing" textLength="79" x="102.5" y="105.4966">:Messages</text><path d="M10,125.5625 L173,125.5625 L173,132.6953 L163,142.6953 L10,142.6953 L10,125.5625 " fill="#EEEEEE" style="stroke:#2094F3;stroke-width:1.5;"/><rect fill="none" height="196.7969" style="stroke:#2094F3;stroke-width:1.5;" width="440" x="10" y="125.5625"/><text fill="#2094F3" font-family="sans-serif" font-size="13" font-weight="bold" lengthAdjust="spacing" textLength="118" x="25" y="138.6294">Messages.Any()</text><path d="M20,149.6953 L131,149.6953 L131,156.8281 L121,166.8281 L20,166.8281 L20,149.6953 " fill="#EEEEEE" style="stroke:#2094F3;stroke-width:1.5;"/><rect fill="none" height="165.6641" style="stroke:#2094F3;stroke-width:1.5;" width="420" x="20" y="149.6953"/><text fill="#2094F3" font-family="sans-serif" font-size="13" font-weight="bold" lengthAdjust="spacing" textLength="66" x="35" y="162.7622">Message</text><polygon fill="#2094F3" points="347.5,183.9609,357.5,187.9609,347.5,191.9609,351.5,187.9609" style="stroke:#2094F3;stroke-width:1.0;"/><line style="stroke:#2094F3;stroke-width:1.0;" x1="85.5" x2="353.5" y1="187.9609" y2="187.9609"/><text fill="#E6E1E3" font-family="sans-serif" font-size="13" font-weight="bold" lengthAdjust="spacing" textLength="254" x="92.5" y="182.895">KafkaProducer.Produce(Message)</text><polygon fill="#2094F3" points="96.5,213.0938,86.5,217.0938,96.5,221.0938,92.5,217.0938" style="stroke:#2094F3;stroke-width:1.0;"/><line style="stroke:#2094F3;stroke-width:1.0;stroke-dasharray:2.0,2.0;" x1="90.5" x2="363.5" y1="217.0938" y2="217.0938"/><text fill="#E6E1E3" font-family="sans-serif" font-size="13" font-weight="bold" lengthAdjust="spacing" textLength="52" x="102.5" y="212.0278">:Status</text><path d="M30,232.0938 L197,232.0938 L197,239.2266 L187,249.2266 L30,249.2266 L30,232.0938 " fill="#EEEEEE" style="stroke:#2094F3;stroke-width:1.5;"/><rect fill="none" height="76.2656" style="stroke:#2094F3;stroke-width:1.5;" width="269" x="30" y="232.0938"/><text fill="#2094F3" font-family="sans-serif" font-size="13" font-weight="bold" lengthAdjust="spacing" textLength="122" x="45" y="245.1606">Status.Persisted</text><polygon fill="#2094F3" points="223.5,266.3594,233.5,270.3594,223.5,274.3594,227.5,270.3594" style="stroke:#2094F3;stroke-width:1.0;"/><line style="stroke:#2094F3;stroke-width:1.0;" x1="85.5" x2="229.5" y1="270.3594" y2="270.3594"/><text fill="#E6E1E3" font-family="sans-serif" font-size="13" font-weight="bold" lengthAdjust="spacing" textLength="131" x="92.5" y="265.2935">Message.Delete()</text></g></svg>