<svg xmlns="http://www.w3.org/2000/svg" xmlns:xlink="http://www.w3.org/1999/xlink" contentStyleType="text/css" height="323px" preserveAspectRatio="none" style="width:915px;height:323px;background:#00000000;" version="1.1" viewBox="0 0 915 323" width="915px" zoomAndPan="magnify"><defs/><g><rect fill="#E6E1E3" height="216.6641" style="stroke:#2094F3;stroke-width:1.0;" width="10" x="52" y="46.2969"/><rect fill="#E6E1E3" height="195.5313" style="stroke:#2094F3;stroke-width:1.0;" width="10" x="375" y="67.4297"/><rect fill="#E6E1E3" height="28" style="stroke:#2094F3;stroke-width:1.0;" width="10" x="380" y="234.9609"/><rect fill="#E6E1E3" height="101.2656" style="stroke:#2094F3;stroke-width:1.0;" width="10" x="679" y="96.5625"/><rect fill="#E6E1E3" height="28" style="stroke:#2094F3;stroke-width:1.0;" width="10" x="684" y="133.6953"/><line style="stroke:#2094F3;stroke-width:0.5;stroke-dasharray:5.0,5.0;" x1="57" x2="57" y1="36.2969" y2="287.9609"/><line style="stroke:#2094F3;stroke-width:0.5;stroke-dasharray:5.0,5.0;" x1="379.5" x2="379.5" y1="36.2969" y2="287.9609"/><line style="stroke:#2094F3;stroke-width:0.5;stroke-dasharray:5.0,5.0;" x1="684" x2="684" y1="36.2969" y2="287.9609"/><rect fill="#E6E1E3" height="30.2969" rx="2.5" ry="2.5" style="stroke:#2094F3;stroke-width:0.5;" width="104" x="5" y="5"/><text fill="#1E2129" font-family="sans-serif" font-size="14" font-weight="bold" lengthAdjust="spacing" textLength="90" x="12" y="24.9951">3rd System</text><rect fill="#E6E1E3" height="30.2969" rx="2.5" ry="2.5" style="stroke:#2094F3;stroke-width:0.5;" width="104" x="5" y="286.9609"/><text fill="#1E2129" font-family="sans-serif" font-size="14" font-weight="bold" lengthAdjust="spacing" textLength="90" x="12" y="306.9561">3rd System</text><rect fill="#E6E1E3" height="30.2969" rx="2.5" ry="2.5" style="stroke:#2094F3;stroke-width:0.5;" width="113" x="323.5" y="5"/><text fill="#1E2129" font-family="sans-serif" font-size="14" font-weight="bold" lengthAdjust="spacing" textLength="99" x="330.5" y="24.9951">API Gateway</text><rect fill="#E6E1E3" height="30.2969" rx="2.5" ry="2.5" style="stroke:#2094F3;stroke-width:0.5;" width="113" x="323.5" y="286.9609"/><text fill="#1E2129" font-family="sans-serif" font-size="14" font-weight="bold" lengthAdjust="spacing" textLength="99" x="330.5" y="306.9561">API Gateway</text><rect fill="#E6E1E3" height="30.2969" rx="2.5" ry="2.5" style="stroke:#2094F3;stroke-width:0.5;" width="64" x="652" y="5"/><text fill="#1E2129" font-family="sans-serif" font-size="14" font-weight="bold" lengthAdjust="spacing" textLength="50" x="659" y="24.9951">MPass</text><rect fill="#E6E1E3" height="30.2969" rx="2.5" ry="2.5" style="stroke:#2094F3;stroke-width:0.5;" width="64" x="652" y="286.9609"/><text fill="#1E2129" font-family="sans-serif" font-size="14" font-weight="bold" lengthAdjust="spacing" textLength="50" x="659" y="306.9561">MPass</text><rect fill="#E6E1E3" height="216.6641" style="stroke:#2094F3;stroke-width:1.0;" width="10" x="52" y="46.2969"/><rect fill="#E6E1E3" height="195.5313" style="stroke:#2094F3;stroke-width:1.0;" width="10" x="375" y="67.4297"/><rect fill="#E6E1E3" height="28" style="stroke:#2094F3;stroke-width:1.0;" width="10" x="380" y="234.9609"/><rect fill="#E6E1E3" height="101.2656" style="stroke:#2094F3;stroke-width:1.0;" width="10" x="679" y="96.5625"/><rect fill="#E6E1E3" height="28" style="stroke:#2094F3;stroke-width:1.0;" width="10" x="684" y="133.6953"/><polygon fill="#2094F3" points="363,63.4297,373,67.4297,363,71.4297,367,67.4297" style="stroke:#2094F3;stroke-width:1.0;"/><line style="stroke:#2094F3;stroke-width:1.0;" x1="62" x2="369" y1="67.4297" y2="67.4297"/><text fill="#E6E1E3" font-family="sans-serif" font-size="13" font-weight="bold" lengthAdjust="spacing" textLength="294" x="69" y="62.3638">1. RequestAuthenticationByCertificate()</text><polygon fill="#2094F3" points="667,92.5625,677,96.5625,667,100.5625,671,96.5625" style="stroke:#2094F3;stroke-width:1.0;"/><line style="stroke:#2094F3;stroke-width:1.0;" x1="385" x2="673" y1="96.5625" y2="96.5625"/><text fill="#E6E1E3" font-family="sans-serif" font-size="13" font-weight="bold" lengthAdjust="spacing" textLength="275" x="392" y="91.4966">RequestAuthenticationByCertificate()</text><line style="stroke:#2094F3;stroke-width:1.0;" x1="694" x2="736" y1="125.6953" y2="125.6953"/><line style="stroke:#2094F3;stroke-width:1.0;" x1="736" x2="736" y1="125.6953" y2="138.6953"/><line style="stroke:#2094F3;stroke-width:1.0;" x1="695" x2="736" y1="138.6953" y2="138.6953"/><polygon fill="#2094F3" points="705,134.6953,695,138.6953,705,142.6953,701,138.6953" style="stroke:#2094F3;stroke-width:1.0;"/><text fill="#E6E1E3" font-family="sans-serif" font-size="13" font-weight="bold" lengthAdjust="spacing" textLength="207" x="701" y="120.6294">Verify AuthDetails and roles</text><polygon fill="#2094F3" points="396,193.8281,386,197.8281,396,201.8281,392,197.8281" style="stroke:#2094F3;stroke-width:1.0;"/><line style="stroke:#2094F3;stroke-width:1.0;stroke-dasharray:2.0,2.0;" x1="390" x2="683" y1="197.8281" y2="197.8281"/><text fill="#E6E1E3" font-family="sans-serif" font-size="13" font-weight="bold" lengthAdjust="spacing" textLength="164" x="402" y="192.7622">:AuthDetails and roles</text><line style="stroke:#2094F3;stroke-width:1.0;" x1="390" x2="432" y1="226.9609" y2="226.9609"/><line style="stroke:#2094F3;stroke-width:1.0;" x1="432" x2="432" y1="226.9609" y2="239.9609"/><line style="stroke:#2094F3;stroke-width:1.0;" x1="391" x2="432" y1="239.9609" y2="239.9609"/><polygon fill="#2094F3" points="401,235.9609,391,239.9609,401,243.9609,397,239.9609" style="stroke:#2094F3;stroke-width:1.0;"/><text fill="#E6E1E3" font-family="sans-serif" font-size="13" font-weight="bold" lengthAdjust="spacing" textLength="147" x="397" y="221.895">3. ActivateSession()</text></g></svg>