<svg xmlns="http://www.w3.org/2000/svg" xmlns:xlink="http://www.w3.org/1999/xlink" contentStyleType="text/css" height="442px" preserveAspectRatio="none" style="width:656px;height:442px;background:#00000000;" version="1.1" viewBox="0 0 656 442" width="656px" zoomAndPan="magnify"><defs/><g><rect fill="#E6E1E3" height="261.7969" style="stroke:#2094F3;stroke-width:1.0;" width="10" x="47" y="91.2969"/><rect fill="#E6E1E3" height="224.6641" style="stroke:#2094F3;stroke-width:1.0;" width="10" x="280" y="112.4297"/><rect fill="#E6E1E3" height="28" style="stroke:#2094F3;stroke-width:1.0;" width="10" x="285" y="309.0938"/><rect fill="#E6E1E3" height="130.3984" style="stroke:#2094F3;stroke-width:1.0;" width="10" x="494" y="141.5625"/><rect fill="#E6E1E3" height="28" style="stroke:#2094F3;stroke-width:1.0;" width="10" x="499" y="207.8281"/><line style="stroke:#2094F3;stroke-width:0.5;stroke-dasharray:5.0,5.0;" x1="52" x2="52" y1="81.2969" y2="362.0938"/><line style="stroke:#2094F3;stroke-width:0.5;stroke-dasharray:5.0,5.0;" x1="284.5" x2="284.5" y1="81.2969" y2="362.0938"/><line style="stroke:#2094F3;stroke-width:0.5;stroke-dasharray:5.0,5.0;" x1="499" x2="499" y1="81.2969" y2="362.0938"/><text fill="#E6E1E3" font-family="sans-serif" font-size="14" font-weight="bold" lengthAdjust="spacing" textLength="88" x="5" y="77.9951">Public user</text><ellipse cx="52" cy="13.5" fill="#E6E1E3" rx="8" ry="8" style="stroke:#2094F3;stroke-width:0.5;"/><path d="M52,21.5 L52,48.5 M39,29.5 L65,29.5 M52,48.5 L39,63.5 M52,48.5 L65,63.5 " fill="none" style="stroke:#2094F3;stroke-width:0.5;"/><text fill="#E6E1E3" font-family="sans-serif" font-size="14" font-weight="bold" lengthAdjust="spacing" textLength="88" x="5" y="374.0889">Public user</text><ellipse cx="52" cy="385.8906" fill="#E6E1E3" rx="8" ry="8" style="stroke:#2094F3;stroke-width:0.5;"/><path d="M52,393.8906 L52,420.8906 M39,401.8906 L65,401.8906 M52,420.8906 L39,435.8906 M52,420.8906 L65,435.8906 " fill="none" style="stroke:#2094F3;stroke-width:0.5;"/><rect fill="#E6E1E3" height="30.2969" rx="2.5" ry="2.5" style="stroke:#2094F3;stroke-width:0.5;" width="73" x="248.5" y="50"/><text fill="#1E2129" font-family="sans-serif" font-size="14" font-weight="bold" lengthAdjust="spacing" textLength="59" x="255.5" y="69.9951">MNotify</text><rect fill="#E6E1E3" height="30.2969" rx="2.5" ry="2.5" style="stroke:#2094F3;stroke-width:0.5;" width="73" x="248.5" y="361.0938"/><text fill="#1E2129" font-family="sans-serif" font-size="14" font-weight="bold" lengthAdjust="spacing" textLength="59" x="255.5" y="381.0889">MNotify</text><rect fill="#E6E1E3" height="30.2969" rx="2.5" ry="2.5" style="stroke:#2094F3;stroke-width:0.5;" width="64" x="467" y="50"/><text fill="#1E2129" font-family="sans-serif" font-size="14" font-weight="bold" lengthAdjust="spacing" textLength="50" x="474" y="69.9951">MPass</text><rect fill="#E6E1E3" height="30.2969" rx="2.5" ry="2.5" style="stroke:#2094F3;stroke-width:0.5;" width="64" x="467" y="361.0938"/><text fill="#1E2129" font-family="sans-serif" font-size="14" font-weight="bold" lengthAdjust="spacing" textLength="50" x="474" y="381.0889">MPass</text><rect fill="#E6E1E3" height="261.7969" style="stroke:#2094F3;stroke-width:1.0;" width="10" x="47" y="91.2969"/><rect fill="#E6E1E3" height="224.6641" style="stroke:#2094F3;stroke-width:1.0;" width="10" x="280" y="112.4297"/><rect fill="#E6E1E3" height="28" style="stroke:#2094F3;stroke-width:1.0;" width="10" x="285" y="309.0938"/><rect fill="#E6E1E3" height="130.3984" style="stroke:#2094F3;stroke-width:1.0;" width="10" x="494" y="141.5625"/><rect fill="#E6E1E3" height="28" style="stroke:#2094F3;stroke-width:1.0;" width="10" x="499" y="207.8281"/><polygon fill="#2094F3" points="268,108.4297,278,112.4297,268,116.4297,272,112.4297" style="stroke:#2094F3;stroke-width:1.0;"/><line style="stroke:#2094F3;stroke-width:1.0;" x1="57" x2="274" y1="112.4297" y2="112.4297"/><text fill="#E6E1E3" font-family="sans-serif" font-size="13" font-weight="bold" lengthAdjust="spacing" textLength="204" x="64" y="107.3638">1. Request Authentication()</text><polygon fill="#2094F3" points="482,137.5625,492,141.5625,482,145.5625,486,141.5625" style="stroke:#2094F3;stroke-width:1.0;"/><line style="stroke:#2094F3;stroke-width:1.0;" x1="290" x2="488" y1="141.5625" y2="141.5625"/><text fill="#E6E1E3" font-family="sans-serif" font-size="13" font-weight="bold" lengthAdjust="spacing" textLength="185" x="297" y="136.4966">Request Authentication()</text><polygon fill="#2094F3" points="482,166.6953,492,170.6953,482,174.6953,486,170.6953" style="stroke:#2094F3;stroke-width:1.0;"/><line style="stroke:#2094F3;stroke-width:1.0;" x1="57" x2="488" y1="170.6953" y2="170.6953"/><text fill="#E6E1E3" font-family="sans-serif" font-size="13" font-weight="bold" lengthAdjust="spacing" textLength="160" x="64" y="165.6294">2. Enter AuthDetails()</text><line style="stroke:#2094F3;stroke-width:1.0;" x1="509" x2="551" y1="199.8281" y2="199.8281"/><line style="stroke:#2094F3;stroke-width:1.0;" x1="551" x2="551" y1="199.8281" y2="212.8281"/><line style="stroke:#2094F3;stroke-width:1.0;" x1="510" x2="551" y1="212.8281" y2="212.8281"/><polygon fill="#2094F3" points="520,208.8281,510,212.8281,520,216.8281,516,212.8281" style="stroke:#2094F3;stroke-width:1.0;"/><text fill="#E6E1E3" font-family="sans-serif" font-size="13" font-weight="bold" lengthAdjust="spacing" textLength="133" x="516" y="194.7622">Verify AuthDetails</text><polygon fill="#2094F3" points="301,267.9609,291,271.9609,301,275.9609,297,271.9609" style="stroke:#2094F3;stroke-width:1.0;"/><line style="stroke:#2094F3;stroke-width:1.0;stroke-dasharray:2.0,2.0;" x1="295" x2="498" y1="271.9609" y2="271.9609"/><text fill="#E6E1E3" font-family="sans-serif" font-size="13" font-weight="bold" lengthAdjust="spacing" textLength="90" x="307" y="266.895">:AuthDetails</text><line style="stroke:#2094F3;stroke-width:1.0;" x1="295" x2="337" y1="301.0938" y2="301.0938"/><line style="stroke:#2094F3;stroke-width:1.0;" x1="337" x2="337" y1="301.0938" y2="314.0938"/><line style="stroke:#2094F3;stroke-width:1.0;" x1="296" x2="337" y1="314.0938" y2="314.0938"/><polygon fill="#2094F3" points="306,310.0938,296,314.0938,306,318.0938,302,314.0938" style="stroke:#2094F3;stroke-width:1.0;"/><text fill="#E6E1E3" font-family="sans-serif" font-size="13" font-weight="bold" lengthAdjust="spacing" textLength="147" x="302" y="296.0278">3. ActivateSession()</text></g></svg>