<svg xmlns="http://www.w3.org/2000/svg" xmlns:xlink="http://www.w3.org/1999/xlink" contentStyleType="text/css" height="1289px" preserveAspectRatio="none" style="width:1407px;height:1289px;background:#00000000;" version="1.1" viewBox="0 0 1407 1289" width="1407px" zoomAndPan="magnify"><defs/><g><rect fill="#FCF2E3" height="1078.25" style="stroke:#181818;stroke-width:1.0;" width="10" x="25.5" y="112.4297"/><rect fill="#FCF2E3" height="58.2656" style="stroke:#181818;stroke-width:1.0;" width="10" x="344.5" y="112.4297"/><rect fill="#FCF2E3" height="58.2656" style="stroke:#181818;stroke-width:1.0;" width="10" x="344.5" y="199.8281"/><rect fill="#FCF2E3" height="129.5313" style="stroke:#181818;stroke-width:1.0;" width="10" x="344.5" y="287.2266"/><rect fill="#FCF2E3" height="175.6641" style="stroke:#181818;stroke-width:1.0;" width="10" x="344.5" y="445.8906"/><rect fill="#FCF2E3" height="306.9297" style="stroke:#181818;stroke-width:1.0;" width="10" x="344.5" y="650.6875"/><rect fill="#FCF2E3" height="58.2656" style="stroke:#181818;stroke-width:1.0;" width="10" x="344.5" y="986.75"/><rect fill="#FCF2E3" height="116.5313" style="stroke:#181818;stroke-width:1.0;" width="10" x="344.5" y="1074.1484"/><rect fill="#FCF2E3" height="29.1328" style="stroke:#181818;stroke-width:1.0;" width="10" x="615.5" y="141.5625"/><rect fill="#FCF2E3" height="29.1328" style="stroke:#181818;stroke-width:1.0;" width="10" x="615.5" y="228.9609"/><rect fill="#FCF2E3" height="29.1328" style="stroke:#181818;stroke-width:1.0;" width="10" x="615.5" y="316.3594"/><rect fill="#FCF2E3" height="30" style="stroke:#181818;stroke-width:1.0;" width="10" x="615.5" y="898.4844"/><rect fill="#FCF2E3" height="29.1328" style="stroke:#181818;stroke-width:1.0;" width="10" x="615.5" y="1161.5469"/><rect fill="#FCF2E3" height="129.5313" style="stroke:#181818;stroke-width:1.0;" width="10" x="942.5" y="287.2266"/><rect fill="#FCF2E3" height="35.1328" style="stroke:#181818;stroke-width:1.0;" width="10" x="947.5" y="345.4922"/><rect fill="#FCF2E3" height="88.2656" style="stroke:#181818;stroke-width:1.0;" width="10" x="942.5" y="475.0234"/><rect fill="#FCF2E3" height="147.3984" style="stroke:#181818;stroke-width:1.0;" width="10" x="942.5" y="810.2188"/><rect fill="#FCF2E3" height="29.1328" style="stroke:#181818;stroke-width:1.0;" width="10" x="942.5" y="1015.8828"/><rect fill="#FCF2E3" height="29.1328" style="stroke:#181818;stroke-width:1.0;" width="10" x="942.5" y="1103.2813"/><rect fill="#FCF2E3" height="30" style="stroke:#181818;stroke-width:1.0;" width="10" x="1198.5" y="504.1563"/><rect fill="#FCF2E3" height="29.1328" style="stroke:#181818;stroke-width:1.0;" width="10" x="1198.5" y="592.4219"/><rect fill="#FCF2E3" height="101.2656" style="stroke:#181818;stroke-width:1.0;" width="10" x="1198.5" y="679.8203"/><rect fill="#FCF2E3" height="28" style="stroke:#181818;stroke-width:1.0;" width="10" x="1203.5" y="716.9531"/><rect fill="#FCF2E3" height="30" style="stroke:#181818;stroke-width:1.0;" width="10" x="1198.5" y="839.3516"/><line style="stroke:#181818;stroke-width:0.5;stroke-dasharray:5.0,5.0;" x1="30" x2="30" y1="81.2969" y2="1208.6797"/><line style="stroke:#181818;stroke-width:0.5;stroke-dasharray:5.0,5.0;" x1="349" x2="349" y1="81.2969" y2="1208.6797"/><line style="stroke:#181818;stroke-width:0.5;stroke-dasharray:5.0,5.0;" x1="620" x2="620" y1="81.2969" y2="1208.6797"/><line style="stroke:#181818;stroke-width:0.5;stroke-dasharray:5.0,5.0;" x1="947" x2="947" y1="81.2969" y2="1208.6797"/><line style="stroke:#181818;stroke-width:0.5;stroke-dasharray:5.0,5.0;" x1="1203.5" x2="1203.5" y1="81.2969" y2="1208.6797"/><text fill="#000000" font-family="sans-serif" font-size="14" font-weight="bold" lengthAdjust="spacing" textLength="45" x="5" y="77.9951">Payer</text><ellipse cx="30.5" cy="13.5" fill="#E2E2F0" rx="8" ry="8" style="stroke:#181818;stroke-width:0.5;"/><path d="M30.5,21.5 L30.5,48.5 M17.5,29.5 L43.5,29.5 M30.5,48.5 L17.5,63.5 M30.5,48.5 L43.5,63.5 " fill="none" style="stroke:#181818;stroke-width:0.5;"/><text fill="#000000" font-family="sans-serif" font-size="14" font-weight="bold" lengthAdjust="spacing" textLength="45" x="5" y="1220.6748">Payer</text><ellipse cx="30.5" cy="1232.4766" fill="#E2E2F0" rx="8" ry="8" style="stroke:#181818;stroke-width:0.5;"/><path d="M30.5,1240.4766 L30.5,1267.4766 M17.5,1248.4766 L43.5,1248.4766 M30.5,1267.4766 L17.5,1282.4766 M30.5,1267.4766 L43.5,1282.4766 " fill="none" style="stroke:#181818;stroke-width:0.5;"/><rect fill="#FCF2E3" height="30.2969" rx="2.5" ry="2.5" style="stroke:#181818;stroke-width:0.5;" width="81" x="309" y="50"/><text fill="#000000" font-family="sans-serif" font-size="14" font-weight="bold" lengthAdjust="spacing" textLength="67" x="316" y="69.9951">Browser</text><rect fill="#FCF2E3" height="30.2969" rx="2.5" ry="2.5" style="stroke:#181818;stroke-width:0.5;" width="81" x="309" y="1207.6797"/><text fill="#000000" font-family="sans-serif" font-size="14" font-weight="bold" lengthAdjust="spacing" textLength="67" x="316" y="1227.6748">Browser</text><rect fill="#FCF2E3" height="30.2969" rx="2.5" ry="2.5" style="stroke:#181818;stroke-width:0.5;" width="89" x="576" y="50"/><text fill="#000000" font-family="sans-serif" font-size="14" font-weight="bold" lengthAdjust="spacing" textLength="75" x="583" y="69.9951">e-Service</text><rect fill="#FCF2E3" height="30.2969" rx="2.5" ry="2.5" style="stroke:#181818;stroke-width:0.5;" width="89" x="576" y="1207.6797"/><text fill="#000000" font-family="sans-serif" font-size="14" font-weight="bold" lengthAdjust="spacing" textLength="75" x="583" y="1227.6748">e-Service</text><rect fill="#FCF2E3" height="30.2969" rx="2.5" ry="2.5" style="stroke:#181818;stroke-width:0.5;" width="55" x="920" y="50"/><text fill="#000000" font-family="sans-serif" font-size="14" font-weight="bold" lengthAdjust="spacing" textLength="41" x="927" y="69.9951">MPay</text><rect fill="#FCF2E3" height="30.2969" rx="2.5" ry="2.5" style="stroke:#181818;stroke-width:0.5;" width="55" x="920" y="1207.6797"/><text fill="#000000" font-family="sans-serif" font-size="14" font-weight="bold" lengthAdjust="spacing" textLength="41" x="927" y="1227.6748">MPay</text><rect fill="#FCF2E3" height="30.2969" rx="2.5" ry="2.5" style="stroke:#181818;stroke-width:0.5;" width="154" x="1126.5" y="50"/><text fill="#000000" font-family="sans-serif" font-size="14" font-weight="bold" lengthAdjust="spacing" textLength="140" x="1133.5" y="69.9951">Payment Provider</text><rect fill="#FCF2E3" height="30.2969" rx="2.5" ry="2.5" style="stroke:#181818;stroke-width:0.5;" width="154" x="1126.5" y="1207.6797"/><text fill="#000000" font-family="sans-serif" font-size="14" font-weight="bold" lengthAdjust="spacing" textLength="140" x="1133.5" y="1227.6748">Payment Provider</text><rect fill="#FCF2E3" height="1078.25" style="stroke:#181818;stroke-width:1.0;" width="10" x="25.5" y="112.4297"/><rect fill="#FCF2E3" height="58.2656" style="stroke:#181818;stroke-width:1.0;" width="10" x="344.5" y="112.4297"/><rect fill="#FCF2E3" height="58.2656" style="stroke:#181818;stroke-width:1.0;" width="10" x="344.5" y="199.8281"/><rect fill="#FCF2E3" height="129.5313" style="stroke:#181818;stroke-width:1.0;" width="10" x="344.5" y="287.2266"/><rect fill="#FCF2E3" height="175.6641" style="stroke:#181818;stroke-width:1.0;" width="10" x="344.5" y="445.8906"/><rect fill="#FCF2E3" height="306.9297" style="stroke:#181818;stroke-width:1.0;" width="10" x="344.5" y="650.6875"/><rect fill="#FCF2E3" height="58.2656" style="stroke:#181818;stroke-width:1.0;" width="10" x="344.5" y="986.75"/><rect fill="#FCF2E3" height="116.5313" style="stroke:#181818;stroke-width:1.0;" width="10" x="344.5" y="1074.1484"/><rect fill="#FCF2E3" height="29.1328" style="stroke:#181818;stroke-width:1.0;" width="10" x="615.5" y="141.5625"/><rect fill="#FCF2E3" height="29.1328" style="stroke:#181818;stroke-width:1.0;" width="10" x="615.5" y="228.9609"/><rect fill="#FCF2E3" height="29.1328" style="stroke:#181818;stroke-width:1.0;" width="10" x="615.5" y="316.3594"/><rect fill="#FCF2E3" height="30" style="stroke:#181818;stroke-width:1.0;" width="10" x="615.5" y="898.4844"/><rect fill="#FCF2E3" height="29.1328" style="stroke:#181818;stroke-width:1.0;" width="10" x="615.5" y="1161.5469"/><rect fill="#FCF2E3" height="129.5313" style="stroke:#181818;stroke-width:1.0;" width="10" x="942.5" y="287.2266"/><rect fill="#FCF2E3" height="35.1328" style="stroke:#181818;stroke-width:1.0;" width="10" x="947.5" y="345.4922"/><rect fill="#FCF2E3" height="88.2656" style="stroke:#181818;stroke-width:1.0;" width="10" x="942.5" y="475.0234"/><rect fill="#FCF2E3" height="147.3984" style="stroke:#181818;stroke-width:1.0;" width="10" x="942.5" y="810.2188"/><rect fill="#FCF2E3" height="29.1328" style="stroke:#181818;stroke-width:1.0;" width="10" x="942.5" y="1015.8828"/><rect fill="#FCF2E3" height="29.1328" style="stroke:#181818;stroke-width:1.0;" width="10" x="942.5" y="1103.2813"/><rect fill="#FCF2E3" height="30" style="stroke:#181818;stroke-width:1.0;" width="10" x="1198.5" y="504.1563"/><rect fill="#FCF2E3" height="29.1328" style="stroke:#181818;stroke-width:1.0;" width="10" x="1198.5" y="592.4219"/><rect fill="#FCF2E3" height="101.2656" style="stroke:#181818;stroke-width:1.0;" width="10" x="1198.5" y="679.8203"/><rect fill="#FCF2E3" height="28" style="stroke:#181818;stroke-width:1.0;" width="10" x="1203.5" y="716.9531"/><rect fill="#FCF2E3" height="30" style="stroke:#181818;stroke-width:1.0;" width="10" x="1198.5" y="839.3516"/><polygon fill="#181818" points="332.5,108.4297,342.5,112.4297,332.5,116.4297,336.5,112.4297" style="stroke:#181818;stroke-width:1.0;"/><line style="stroke:#181818;stroke-width:1.0;" x1="35.5" x2="338.5" y1="112.4297" y2="112.4297"/><text fill="#000000" font-family="sans-serif" font-size="13" font-weight="bold" lengthAdjust="spacing" textLength="175" x="42.5" y="107.3638">1. Fill Form and Order()</text><polygon fill="#181818" points="603.5,137.5625,613.5,141.5625,603.5,145.5625,607.5,141.5625" style="stroke:#181818;stroke-width:1.0;"/><line style="stroke:#181818;stroke-width:1.0;" x1="354.5" x2="609.5" y1="141.5625" y2="141.5625"/><text fill="#000000" font-family="sans-serif" font-size="13" font-weight="bold" lengthAdjust="spacing" textLength="94" x="361.5" y="136.4966">Save Order()</text><polygon fill="#181818" points="360.5,166.6953,350.5,170.6953,360.5,174.6953,356.5,170.6953" style="stroke:#181818;stroke-width:1.0;"/><line style="stroke:#181818;stroke-width:1.0;stroke-dasharray:2.0,2.0;" x1="354.5" x2="619.5" y1="170.6953" y2="170.6953"/><text fill="#000000" font-family="sans-serif" font-size="13" font-weight="bold" lengthAdjust="spacing" textLength="187" x="366.5" y="165.6294">:Order Save Confirmation</text><polygon fill="#181818" points="332.5,195.8281,342.5,199.8281,332.5,203.8281,336.5,199.8281" style="stroke:#181818;stroke-width:1.0;"/><line style="stroke:#181818;stroke-width:1.0;" x1="35.5" x2="338.5" y1="199.8281" y2="199.8281"/><text fill="#000000" font-family="sans-serif" font-size="13" font-weight="bold" lengthAdjust="spacing" textLength="105" x="42.5" y="194.7622">2. Pay Order()</text><polygon fill="#181818" points="603.5,224.9609,613.5,228.9609,603.5,232.9609,607.5,228.9609" style="stroke:#181818;stroke-width:1.0;"/><line style="stroke:#181818;stroke-width:1.0;" x1="354.5" x2="609.5" y1="228.9609" y2="228.9609"/><text fill="#000000" font-family="sans-serif" font-size="13" font-weight="bold" lengthAdjust="spacing" textLength="86" x="361.5" y="223.895">Pay Order()</text><polygon fill="#181818" points="360.5,254.0938,350.5,258.0938,360.5,262.0938,356.5,258.0938" style="stroke:#181818;stroke-width:1.0;"/><line style="stroke:#181818;stroke-width:1.0;stroke-dasharray:2.0,2.0;" x1="354.5" x2="619.5" y1="258.0938" y2="258.0938"/><text fill="#000000" font-family="sans-serif" font-size="13" font-weight="bold" lengthAdjust="spacing" textLength="237" x="366.5" y="253.0278">3. Get Redirect Details(OrderID)</text><polygon fill="#181818" points="930.5,283.2266,940.5,287.2266,930.5,291.2266,934.5,287.2266" style="stroke:#181818;stroke-width:1.0;"/><line style="stroke:#181818;stroke-width:1.0;" x1="354.5" x2="936.5" y1="287.2266" y2="287.2266"/><text fill="#000000" font-family="sans-serif" font-size="13" font-weight="bold" lengthAdjust="spacing" textLength="418" x="361.5" y="282.1606">4. Get Pay Page(ServiceID, OrderID, ReturnUrl(optional))</text><polygon fill="#181818" points="636.5,312.3594,626.5,316.3594,636.5,320.3594,632.5,316.3594" style="stroke:#181818;stroke-width:1.0;"/><line style="stroke:#181818;stroke-width:1.0;" x1="630.5" x2="941.5" y1="316.3594" y2="316.3594"/><text fill="#000000" font-family="sans-serif" font-size="13" font-weight="bold" lengthAdjust="spacing" textLength="297" x="642.5" y="311.2935">5. GetOrderDetails(ServiceID, OrderKey)</text><polygon fill="#181818" points="935.5,341.4922,945.5,345.4922,935.5,349.4922,939.5,345.4922" style="stroke:#181818;stroke-width:1.0;"/><line style="stroke:#181818;stroke-width:1.0;stroke-dasharray:2.0,2.0;" x1="620.5" x2="941.5" y1="345.4922" y2="345.4922"/><text fill="#000000" font-family="sans-serif" font-size="13" font-weight="bold" lengthAdjust="spacing" textLength="98" x="627.5" y="340.4263">:OrderDetails</text><line style="stroke:#181818;stroke-width:1.0;" x1="957.5" x2="999.5" y1="379.625" y2="379.625"/><line style="stroke:#181818;stroke-width:1.0;" x1="999.5" x2="999.5" y1="379.625" y2="392.625"/><line style="stroke:#181818;stroke-width:1.0;" x1="952.5" x2="999.5" y1="392.625" y2="392.625"/><polygon fill="#181818" points="962.5,388.625,952.5,392.625,962.5,396.625,958.5,392.625" style="stroke:#181818;stroke-width:1.0;"/><text fill="#000000" font-family="sans-serif" font-size="13" font-weight="bold" lengthAdjust="spacing" textLength="155" x="964.5" y="374.5591">6. Generate Invoice()</text><polygon fill="#181818" points="360.5,412.7578,350.5,416.7578,360.5,420.7578,356.5,416.7578" style="stroke:#181818;stroke-width:1.0;"/><line style="stroke:#181818;stroke-width:1.0;stroke-dasharray:2.0,2.0;" x1="354.5" x2="946.5" y1="416.7578" y2="416.7578"/><text fill="#000000" font-family="sans-serif" font-size="13" font-weight="bold" lengthAdjust="spacing" textLength="131" x="366.5" y="411.6919">:Invoice Pay Page</text><polygon fill="#181818" points="332.5,441.8906,342.5,445.8906,332.5,449.8906,336.5,445.8906" style="stroke:#181818;stroke-width:1.0;"/><line style="stroke:#181818;stroke-width:1.0;" x1="35.5" x2="338.5" y1="445.8906" y2="445.8906"/><text fill="#000000" font-family="sans-serif" font-size="13" font-weight="bold" lengthAdjust="spacing" textLength="161" x="42.5" y="440.8247">7. Select Instrument()</text><polygon fill="#181818" points="930.5,471.0234,940.5,475.0234,930.5,479.0234,934.5,475.0234" style="stroke:#181818;stroke-width:1.0;"/><line style="stroke:#181818;stroke-width:1.0;" x1="354.5" x2="936.5" y1="475.0234" y2="475.0234"/><text fill="#000000" font-family="sans-serif" font-size="13" font-weight="bold" lengthAdjust="spacing" textLength="142" x="361.5" y="469.9575">Select Instrument()</text><polygon fill="#181818" points="1186.5,500.1563,1196.5,504.1563,1186.5,508.1563,1190.5,504.1563" style="stroke:#181818;stroke-width:1.0;"/><line style="stroke:#181818;stroke-width:1.0;" x1="952.5" x2="1192.5" y1="504.1563" y2="504.1563"/><text fill="#000000" font-family="sans-serif" font-size="13" font-weight="bold" lengthAdjust="spacing" textLength="178" x="959.5" y="499.0903">Publish Invoice Details()</text><polygon fill="#181818" points="365.5,559.2891,355.5,563.2891,365.5,567.2891,361.5,563.2891" style="stroke:#181818;stroke-width:1.0;"/><line style="stroke:#181818;stroke-width:1.0;stroke-dasharray:2.0,2.0;" x1="359.5" x2="946.5" y1="563.2891" y2="563.2891"/><text fill="#000000" font-family="sans-serif" font-size="13" font-weight="bold" lengthAdjust="spacing" textLength="222" x="371.5" y="558.2231">Redirect to Instrument Page()</text><polygon fill="#181818" points="1186.5,588.4219,1196.5,592.4219,1186.5,596.4219,1190.5,592.4219" style="stroke:#181818;stroke-width:1.0;"/><line style="stroke:#181818;stroke-width:1.0;" x1="354.5" x2="1192.5" y1="592.4219" y2="592.4219"/><text fill="#000000" font-family="sans-serif" font-size="13" font-weight="bold" lengthAdjust="spacing" textLength="217" x="361.5" y="587.356">8. Get Instrument Pay Page()</text><polygon fill="#181818" points="360.5,617.5547,350.5,621.5547,360.5,625.5547,356.5,621.5547" style="stroke:#181818;stroke-width:1.0;"/><line style="stroke:#181818;stroke-width:1.0;stroke-dasharray:2.0,2.0;" x1="354.5" x2="1202.5" y1="621.5547" y2="621.5547"/><text fill="#000000" font-family="sans-serif" font-size="13" font-weight="bold" lengthAdjust="spacing" textLength="155" x="366.5" y="616.4888">Instrument Pay Page</text><polygon fill="#181818" points="332.5,646.6875,342.5,650.6875,332.5,654.6875,336.5,650.6875" style="stroke:#181818;stroke-width:1.0;"/><line style="stroke:#181818;stroke-width:1.0;" x1="35.5" x2="338.5" y1="650.6875" y2="650.6875"/><text fill="#000000" font-family="sans-serif" font-size="13" font-weight="bold" lengthAdjust="spacing" textLength="178" x="42.5" y="645.6216">9. Fill Payment Details()</text><polygon fill="#181818" points="1186.5,675.8203,1196.5,679.8203,1186.5,683.8203,1190.5,679.8203" style="stroke:#181818;stroke-width:1.0;"/><line style="stroke:#181818;stroke-width:1.0;" x1="354.5" x2="1192.5" y1="679.8203" y2="679.8203"/><text fill="#000000" font-family="sans-serif" font-size="13" font-weight="bold" lengthAdjust="spacing" textLength="133" x="361.5" y="674.7544">Payment Details()</text><line style="stroke:#181818;stroke-width:1.0;" x1="1213.5" x2="1255.5" y1="708.9531" y2="708.9531"/><line style="stroke:#181818;stroke-width:1.0;" x1="1255.5" x2="1255.5" y1="708.9531" y2="721.9531"/><line style="stroke:#181818;stroke-width:1.0;" x1="1214.5" x2="1255.5" y1="721.9531" y2="721.9531"/><polygon fill="#181818" points="1224.5,717.9531,1214.5,721.9531,1224.5,725.9531,1220.5,721.9531" style="stroke:#181818;stroke-width:1.0;"/><text fill="#000000" font-family="sans-serif" font-size="13" font-weight="bold" lengthAdjust="spacing" textLength="180" x="1220.5" y="703.8872">10. Authorize Payment()</text><polygon fill="#181818" points="365.5,777.0859,355.5,781.0859,365.5,785.0859,361.5,781.0859" style="stroke:#181818;stroke-width:1.0;"/><line style="stroke:#181818;stroke-width:1.0;stroke-dasharray:2.0,2.0;" x1="359.5" x2="1202.5" y1="781.0859" y2="781.0859"/><text fill="#000000" font-family="sans-serif" font-size="13" font-weight="bold" lengthAdjust="spacing" textLength="331" x="371.5" y="776.02">11. Redirect to MPay Payment Result Page()</text><polygon fill="#181818" points="930.5,806.2188,940.5,810.2188,930.5,814.2188,934.5,810.2188" style="stroke:#181818;stroke-width:1.0;"/><line style="stroke:#181818;stroke-width:1.0;" x1="354.5" x2="936.5" y1="810.2188" y2="810.2188"/><text fill="#000000" font-family="sans-serif" font-size="13" font-weight="bold" lengthAdjust="spacing" textLength="230" x="361.5" y="805.1528">12. Get Payment Result Page()</text><polygon fill="#181818" points="1186.5,835.3516,1196.5,839.3516,1186.5,843.3516,1190.5,839.3516" style="stroke:#181818;stroke-width:1.0;"/><line style="stroke:#181818;stroke-width:1.0;" x1="952.5" x2="1192.5" y1="839.3516" y2="839.3516"/><text fill="#000000" font-family="sans-serif" font-size="13" font-weight="bold" lengthAdjust="spacing" textLength="227" x="959.5" y="834.2856">Confirm to Payment Provider()</text><polygon fill="#181818" points="636.5,894.4844,626.5,898.4844,636.5,902.4844,632.5,898.4844" style="stroke:#181818;stroke-width:1.0;"/><line style="stroke:#181818;stroke-width:1.0;" x1="630.5" x2="941.5" y1="898.4844" y2="898.4844"/><text fill="#000000" font-family="sans-serif" font-size="13" font-weight="bold" lengthAdjust="spacing" textLength="298" x="642.5" y="893.4185">13. ConfirmOrderPayment(confirmation)</text><polygon fill="#181818" points="360.5,953.6172,350.5,957.6172,360.5,961.6172,356.5,957.6172" style="stroke:#181818;stroke-width:1.0;"/><line style="stroke:#181818;stroke-width:1.0;stroke-dasharray:2.0,2.0;" x1="354.5" x2="946.5" y1="957.6172" y2="957.6172"/><text fill="#000000" font-family="sans-serif" font-size="13" font-weight="bold" lengthAdjust="spacing" textLength="171" x="366.5" y="952.5513">Payment Result Page()</text><polygon fill="#181818" points="332.5,982.75,342.5,986.75,332.5,990.75,336.5,986.75" style="stroke:#181818;stroke-width:1.0;"/><line style="stroke:#181818;stroke-width:1.0;" x1="35.5" x2="338.5" y1="986.75" y2="986.75"/><text fill="#000000" font-family="sans-serif" font-size="13" font-weight="bold" lengthAdjust="spacing" textLength="245" x="42.5" y="981.6841">14. Print Receipt() &lt;&lt;optional&gt;&gt;</text><polygon fill="#181818" points="930.5,1011.8828,940.5,1015.8828,930.5,1019.8828,934.5,1015.8828" style="stroke:#181818;stroke-width:1.0;"/><line style="stroke:#181818;stroke-width:1.0;" x1="354.5" x2="936.5" y1="1015.8828" y2="1015.8828"/><text fill="#000000" font-family="sans-serif" font-size="13" font-weight="bold" lengthAdjust="spacing" textLength="146" x="361.5" y="1010.8169">Download Receipt()</text><polygon fill="#181818" points="360.5,1041.0156,350.5,1045.0156,360.5,1049.0156,356.5,1045.0156" style="stroke:#181818;stroke-width:1.0;"/><line style="stroke:#181818;stroke-width:1.0;stroke-dasharray:2.0,2.0;" x1="354.5" x2="946.5" y1="1045.0156" y2="1045.0156"/><text fill="#000000" font-family="sans-serif" font-size="13" font-weight="bold" lengthAdjust="spacing" textLength="96" x="366.5" y="1039.9497">:Receipt PDF</text><polygon fill="#181818" points="332.5,1070.1484,342.5,1074.1484,332.5,1078.1484,336.5,1074.1484" style="stroke:#181818;stroke-width:1.0;"/><line style="stroke:#181818;stroke-width:1.0;" x1="35.5" x2="338.5" y1="1074.1484" y2="1074.1484"/><text fill="#000000" font-family="sans-serif" font-size="13" font-weight="bold" lengthAdjust="spacing" textLength="290" x="42.5" y="1069.0825">15. Return to e-Service() &lt;&lt;optional&gt;&gt;</text><polygon fill="#181818" points="930.5,1099.2813,940.5,1103.2813,930.5,1107.2813,934.5,1103.2813" style="stroke:#181818;stroke-width:1.0;"/><line style="stroke:#181818;stroke-width:1.0;" x1="354.5" x2="936.5" y1="1103.2813" y2="1103.2813"/><text fill="#000000" font-family="sans-serif" font-size="13" font-weight="bold" lengthAdjust="spacing" textLength="153" x="361.5" y="1098.2153">Return to e-Service()</text><polygon fill="#181818" points="365.5,1128.4141,355.5,1132.4141,365.5,1136.4141,361.5,1132.4141" style="stroke:#181818;stroke-width:1.0;"/><line style="stroke:#181818;stroke-width:1.0;stroke-dasharray:2.0,2.0;" x1="359.5" x2="946.5" y1="1132.4141" y2="1132.4141"/><text fill="#000000" font-family="sans-serif" font-size="13" font-weight="bold" lengthAdjust="spacing" textLength="240" x="371.5" y="1127.3481">Redirect to e-Service ReturnUrl()</text><polygon fill="#181818" points="603.5,1157.5469,613.5,1161.5469,603.5,1165.5469,607.5,1161.5469" style="stroke:#181818;stroke-width:1.0;"/><line style="stroke:#181818;stroke-width:1.0;" x1="354.5" x2="609.5" y1="1161.5469" y2="1161.5469"/><text fill="#000000" font-family="sans-serif" font-size="13" font-weight="bold" lengthAdjust="spacing" textLength="155" x="361.5" y="1156.481">Get ReturnUrl Page()</text><polygon fill="#181818" points="360.5,1186.6797,350.5,1190.6797,360.5,1194.6797,356.5,1190.6797" style="stroke:#181818;stroke-width:1.0;"/><line style="stroke:#181818;stroke-width:1.0;stroke-dasharray:2.0,2.0;" x1="354.5" x2="619.5" y1="1190.6797" y2="1190.6797"/><text fill="#000000" font-family="sans-serif" font-size="13" font-weight="bold" lengthAdjust="spacing" textLength="117" x="366.5" y="1185.6138">:ReturnUrl Page</text></g></svg>