<svg xmlns="http://www.w3.org/2000/svg" xmlns:xlink="http://www.w3.org/1999/xlink" contentStyleType="text/css" height="877px" preserveAspectRatio="none" style="width:1161px;height:877px;background:#00000000;" version="1.1" viewBox="0 0 1161 877" width="1161px" zoomAndPan="magnify"><defs/><g><rect fill="none" height="26.2969" id="_title" style="stroke:none;stroke-width:1.0;" width="67" x="548.75" y="10"/><text fill="#000000" font-family="color=#FFF" font-size="14" font-weight="bold" lengthAdjust="spacing" textLength="57" x="553.75" y="27.9951">sd_SLO</text><rect fill="#FCF2E3" height="629.125" style="stroke:#181818;stroke-width:1.0;" width="10" x="21.5" y="149.7266"/><rect fill="#FCF2E3" height="629.125" style="stroke:#181818;stroke-width:1.0;" width="10" x="183.5" y="149.7266"/><rect fill="#FCF2E3" height="101.2656" style="stroke:#181818;stroke-width:1.0;" width="10" x="442.5" y="178.8594"/><rect fill="#FCF2E3" height="28" style="stroke:#181818;stroke-width:1.0;" width="10" x="447.5" y="215.9922"/><rect fill="#FCF2E3" height="29.1328" style="stroke:#181818;stroke-width:1.0;" width="10" x="442.5" y="749.7188"/><rect fill="#FCF2E3" height="53.2656" style="stroke:#181818;stroke-width:1.0;" width="10" x="670.5" y="309.2578"/><rect fill="#FCF2E3" height="30" style="stroke:#181818;stroke-width:1.0;" width="10" x="670.5" y="546.1875"/><rect fill="#FCF2E3" height="108.2656" style="stroke:#181818;stroke-width:1.0;" width="10" x="670.5" y="612.3203"/><rect fill="#FCF2E3" height="28" style="stroke:#181818;stroke-width:1.0;" width="10" x="675.5" y="656.4531"/><rect fill="#FCF2E3" height="101.2656" style="stroke:#181818;stroke-width:1.0;" width="10" x="907.5" y="415.7891"/><rect fill="#FCF2E3" height="28" style="stroke:#181818;stroke-width:1.0;" width="10" x="912.5" y="452.9219"/><rect fill="none" height="296.0625" style="stroke:#000000;stroke-width:1.5;" width="1018.5" x="137" y="324.2578"/><rect fill="none" height="206.6641" style="stroke:#000000;stroke-width:1.5;" width="998.5" x="147" y="377.5234"/><line style="stroke:#181818;stroke-width:0.5;stroke-dasharray:5.0,5.0;" x1="26" x2="26" y1="118.5938" y2="796.8516"/><line style="stroke:#181818;stroke-width:0.5;stroke-dasharray:5.0,5.0;" x1="188" x2="188" y1="118.5938" y2="796.8516"/><line style="stroke:#181818;stroke-width:0.5;stroke-dasharray:5.0,5.0;" x1="447.5" x2="447.5" y1="118.5938" y2="796.8516"/><line style="stroke:#181818;stroke-width:0.5;stroke-dasharray:5.0,5.0;" x1="675" x2="675" y1="118.5938" y2="796.8516"/><line style="stroke:#181818;stroke-width:0.5;stroke-dasharray:5.0,5.0;" x1="912" x2="912" y1="118.5938" y2="796.8516"/><text fill="#000000" font-family="sans-serif" font-size="14" font-weight="bold" lengthAdjust="spacing" textLength="37" x="5" y="115.292">User</text><ellipse cx="26.5" cy="50.7969" fill="#E2E2F0" rx="8" ry="8" style="stroke:#181818;stroke-width:0.5;"/><path d="M26.5,58.7969 L26.5,85.7969 M13.5,66.7969 L39.5,66.7969 M26.5,85.7969 L13.5,100.7969 M26.5,85.7969 L39.5,100.7969 " fill="none" style="stroke:#181818;stroke-width:0.5;"/><text fill="#000000" font-family="sans-serif" font-size="14" font-weight="bold" lengthAdjust="spacing" textLength="37" x="5" y="808.8467">User</text><ellipse cx="26.5" cy="820.6484" fill="#E2E2F0" rx="8" ry="8" style="stroke:#181818;stroke-width:0.5;"/><path d="M26.5,828.6484 L26.5,855.6484 M13.5,836.6484 L39.5,836.6484 M26.5,855.6484 L13.5,870.6484 M26.5,855.6484 L39.5,870.6484 " fill="none" style="stroke:#181818;stroke-width:0.5;"/><text fill="#000000" font-family="sans-serif" font-size="14" lengthAdjust="spacing" textLength="57" x="157" y="115.292">Browser</text><path d="M168,74.2969 L168,98.2969 M168,86.2969 L185,86.2969 " fill="none" style="stroke:#181818;stroke-width:0.5;"/><ellipse cx="197" cy="86.2969" fill="#E2E2F0" rx="12" ry="12" style="stroke:#181818;stroke-width:0.5;"/><text fill="#000000" font-family="sans-serif" font-size="14" lengthAdjust="spacing" textLength="57" x="157" y="808.8467">Browser</text><path d="M168,816.1484 L168,840.1484 M168,828.1484 L185,828.1484 " fill="none" style="stroke:#181818;stroke-width:0.5;"/><ellipse cx="197" cy="828.1484" fill="#E2E2F0" rx="12" ry="12" style="stroke:#181818;stroke-width:0.5;"/><text fill="#000000" font-family="sans-serif" font-size="14" lengthAdjust="spacing" textLength="50" x="419.5" y="115.292">Service</text><path d="M427,74.2969 L427,98.2969 M427,86.2969 L444,86.2969 " fill="none" style="stroke:#181818;stroke-width:0.5;"/><ellipse cx="456" cy="86.2969" fill="#E2E2F0" rx="12" ry="12" style="stroke:#181818;stroke-width:0.5;"/><text fill="#000000" font-family="sans-serif" font-size="14" lengthAdjust="spacing" textLength="50" x="419.5" y="808.8467">Service</text><path d="M427,816.1484 L427,840.1484 M427,828.1484 L444,828.1484 " fill="none" style="stroke:#181818;stroke-width:0.5;"/><ellipse cx="456" cy="828.1484" fill="#E2E2F0" rx="12" ry="12" style="stroke:#181818;stroke-width:0.5;"/><text fill="#000000" font-family="sans-serif" font-size="14" lengthAdjust="spacing" textLength="45" x="650" y="115.292">MPass</text><ellipse cx="675.5" cy="86.2969" fill="#E2E2F0" rx="12" ry="12" style="stroke:#181818;stroke-width:0.5;"/><polygon fill="#181818" points="671.5,74.2969,677.5,69.2969,675.5,74.2969,677.5,79.2969,671.5,74.2969" style="stroke:#181818;stroke-width:1.0;"/><text fill="#000000" font-family="sans-serif" font-size="14" lengthAdjust="spacing" textLength="45" x="650" y="808.8467">MPass</text><ellipse cx="675.5" cy="828.1484" fill="#E2E2F0" rx="12" ry="12" style="stroke:#181818;stroke-width:0.5;"/><polygon fill="#181818" points="671.5,816.1484,677.5,811.1484,675.5,816.1484,677.5,821.1484,671.5,816.1484" style="stroke:#181818;stroke-width:1.0;"/><text fill="#000000" font-family="sans-serif" font-size="14" lengthAdjust="spacing" textLength="89" x="865" y="115.292">OtherService</text><path d="M892,74.2969 L892,98.2969 M892,86.2969 L909,86.2969 " fill="none" style="stroke:#181818;stroke-width:0.5;"/><ellipse cx="921" cy="86.2969" fill="#E2E2F0" rx="12" ry="12" style="stroke:#181818;stroke-width:0.5;"/><text fill="#000000" font-family="sans-serif" font-size="14" lengthAdjust="spacing" textLength="89" x="865" y="808.8467">OtherService</text><path d="M892,816.1484 L892,840.1484 M892,828.1484 L909,828.1484 " fill="none" style="stroke:#181818;stroke-width:0.5;"/><ellipse cx="921" cy="828.1484" fill="#E2E2F0" rx="12" ry="12" style="stroke:#181818;stroke-width:0.5;"/><rect fill="#FCF2E3" height="629.125" style="stroke:#181818;stroke-width:1.0;" width="10" x="21.5" y="149.7266"/><rect fill="#FCF2E3" height="629.125" style="stroke:#181818;stroke-width:1.0;" width="10" x="183.5" y="149.7266"/><rect fill="#FCF2E3" height="101.2656" style="stroke:#181818;stroke-width:1.0;" width="10" x="442.5" y="178.8594"/><rect fill="#FCF2E3" height="28" style="stroke:#181818;stroke-width:1.0;" width="10" x="447.5" y="215.9922"/><rect fill="#FCF2E3" height="29.1328" style="stroke:#181818;stroke-width:1.0;" width="10" x="442.5" y="749.7188"/><rect fill="#FCF2E3" height="53.2656" style="stroke:#181818;stroke-width:1.0;" width="10" x="670.5" y="309.2578"/><rect fill="#FCF2E3" height="30" style="stroke:#181818;stroke-width:1.0;" width="10" x="670.5" y="546.1875"/><rect fill="#FCF2E3" height="108.2656" style="stroke:#181818;stroke-width:1.0;" width="10" x="670.5" y="612.3203"/><rect fill="#FCF2E3" height="28" style="stroke:#181818;stroke-width:1.0;" width="10" x="675.5" y="656.4531"/><rect fill="#FCF2E3" height="101.2656" style="stroke:#181818;stroke-width:1.0;" width="10" x="907.5" y="415.7891"/><rect fill="#FCF2E3" height="28" style="stroke:#181818;stroke-width:1.0;" width="10" x="912.5" y="452.9219"/><polygon fill="#181818" points="171.5,145.7266,181.5,149.7266,171.5,153.7266,175.5,149.7266" style="stroke:#181818;stroke-width:1.0;"/><line style="stroke:#181818;stroke-width:1.0;" x1="31.5" x2="177.5" y1="149.7266" y2="149.7266"/><text fill="#000000" font-family="sans-serif" font-size="13" font-weight="bold" lengthAdjust="spacing" textLength="138" x="38.5" y="144.6606">1. Initiate Logout()</text><polygon fill="#181818" points="430.5,174.8594,440.5,178.8594,430.5,182.8594,434.5,178.8594" style="stroke:#181818;stroke-width:1.0;"/><line style="stroke:#181818;stroke-width:1.0;" x1="193.5" x2="436.5" y1="178.8594" y2="178.8594"/><text fill="#000000" font-family="sans-serif" font-size="13" font-weight="bold" lengthAdjust="spacing" textLength="167" x="200.5" y="173.7935">Send Logout request()</text><line style="stroke:#181818;stroke-width:1.0;" x1="457.5" x2="499.5" y1="207.9922" y2="207.9922"/><line style="stroke:#181818;stroke-width:1.0;" x1="499.5" x2="499.5" y1="207.9922" y2="220.9922"/><line style="stroke:#181818;stroke-width:1.0;" x1="458.5" x2="499.5" y1="220.9922" y2="220.9922"/><polygon fill="#181818" points="468.5,216.9922,458.5,220.9922,468.5,224.9922,464.5,220.9922" style="stroke:#181818;stroke-width:1.0;"/><text fill="#000000" font-family="sans-serif" font-size="13" font-weight="bold" lengthAdjust="spacing" textLength="204" x="464.5" y="202.9263">2. Terminate local session()</text><polygon fill="#181818" points="204.5,276.125,194.5,280.125,204.5,284.125,200.5,280.125" style="stroke:#181818;stroke-width:1.0;"/><line style="stroke:#181818;stroke-width:1.0;stroke-dasharray:2.0,2.0;" x1="198.5" x2="446.5" y1="280.125" y2="280.125"/><text fill="#000000" font-family="sans-serif" font-size="13" font-weight="bold" lengthAdjust="spacing" textLength="166" x="210.5" y="275.0591">3. Redirect to MPass()</text><polygon fill="#181818" points="658.5,305.2578,668.5,309.2578,658.5,313.2578,662.5,309.2578" style="stroke:#181818;stroke-width:1.0;"/><line style="stroke:#181818;stroke-width:1.0;" x1="193.5" x2="664.5" y1="309.2578" y2="309.2578"/><text fill="#000000" font-family="sans-serif" font-size="13" font-weight="bold" lengthAdjust="spacing" textLength="186" x="200.5" y="304.1919">4. POST LogoutRequest()</text><path d="M137,324.2578 L313,324.2578 L313,331.3906 L303,341.3906 L137,341.3906 L137,324.2578 " fill="#EEEEEE" style="stroke:#000000;stroke-width:1.5;"/><rect fill="none" height="296.0625" style="stroke:#000000;stroke-width:1.5;" width="1018.5" x="137" y="324.2578"/><text fill="#000000" font-family="sans-serif" font-size="13" font-weight="bold" lengthAdjust="spacing" textLength="131" x="152" y="337.3247">opt Single Logout</text><polygon fill="#181818" points="204.5,358.5234,194.5,362.5234,204.5,366.5234,200.5,362.5234" style="stroke:#181818;stroke-width:1.0;"/><line style="stroke:#181818;stroke-width:1.0;stroke-dasharray:2.0,2.0;" x1="198.5" x2="674.5" y1="362.5234" y2="362.5234"/><text fill="#000000" font-family="sans-serif" font-size="13" font-weight="bold" lengthAdjust="spacing" textLength="231" x="210.5" y="357.4575">5. Logout from other services()</text><path d="M147,377.5234 L338,377.5234 L338,384.6563 L328,394.6563 L147,394.6563 L147,377.5234 " fill="#EEEEEE" style="stroke:#000000;stroke-width:1.5;"/><rect fill="none" height="206.6641" style="stroke:#000000;stroke-width:1.5;" width="998.5" x="147" y="377.5234"/><text fill="#000000" font-family="sans-serif" font-size="13" font-weight="bold" lengthAdjust="spacing" textLength="146" x="162" y="390.5903">loop Service Logout</text><polygon fill="#181818" points="895.5,411.7891,905.5,415.7891,895.5,419.7891,899.5,415.7891" style="stroke:#181818;stroke-width:1.0;"/><line style="stroke:#181818;stroke-width:1.0;" x1="193.5" x2="901.5" y1="415.7891" y2="415.7891"/><text fill="#000000" font-family="sans-serif" font-size="13" font-weight="bold" lengthAdjust="spacing" textLength="186" x="200.5" y="410.7231">6. POST LogoutRequest()</text><line style="stroke:#181818;stroke-width:1.0;" x1="922.5" x2="964.5" y1="444.9219" y2="444.9219"/><line style="stroke:#181818;stroke-width:1.0;" x1="964.5" x2="964.5" y1="444.9219" y2="457.9219"/><line style="stroke:#181818;stroke-width:1.0;" x1="923.5" x2="964.5" y1="457.9219" y2="457.9219"/><polygon fill="#181818" points="933.5,453.9219,923.5,457.9219,933.5,461.9219,929.5,457.9219" style="stroke:#181818;stroke-width:1.0;"/><text fill="#000000" font-family="sans-serif" font-size="13" font-weight="bold" lengthAdjust="spacing" textLength="204" x="929.5" y="439.856">7. Terminate local session()</text><polygon fill="#181818" points="204.5,513.0547,194.5,517.0547,204.5,521.0547,200.5,517.0547" style="stroke:#181818;stroke-width:1.0;"/><line style="stroke:#181818;stroke-width:1.0;stroke-dasharray:2.0,2.0;" x1="198.5" x2="911.5" y1="517.0547" y2="517.0547"/><text fill="#000000" font-family="sans-serif" font-size="13" font-weight="bold" lengthAdjust="spacing" textLength="198" x="210.5" y="511.9888">8. Confirm service logout()</text><polygon fill="#181818" points="658.5,542.1875,668.5,546.1875,658.5,550.1875,662.5,546.1875" style="stroke:#181818;stroke-width:1.0;"/><line style="stroke:#181818;stroke-width:1.0;" x1="193.5" x2="664.5" y1="546.1875" y2="546.1875"/><text fill="#000000" font-family="sans-serif" font-size="13" font-weight="bold" lengthAdjust="spacing" textLength="197" x="200.5" y="541.1216">9. POST LogoutResponse()</text><polygon fill="#181818" points="658.5,608.3203,668.5,612.3203,658.5,616.3203,662.5,612.3203" style="stroke:#181818;stroke-width:1.0;"/><line style="stroke:#181818;stroke-width:1.0;" x1="193.5" x2="664.5" y1="612.3203" y2="612.3203"/><text fill="#000000" font-family="sans-serif" font-size="13" font-weight="bold" lengthAdjust="spacing" textLength="297" x="200.5" y="607.2544">10. Confirm services logout or timeout()</text><line style="stroke:#181818;stroke-width:1.0;" x1="685.5" x2="727.5" y1="648.4531" y2="648.4531"/><line style="stroke:#181818;stroke-width:1.0;" x1="727.5" x2="727.5" y1="648.4531" y2="661.4531"/><line style="stroke:#181818;stroke-width:1.0;" x1="686.5" x2="727.5" y1="661.4531" y2="661.4531"/><polygon fill="#181818" points="696.5,657.4531,686.5,661.4531,696.5,665.4531,692.5,661.4531" style="stroke:#181818;stroke-width:1.0;"/><text fill="#000000" font-family="sans-serif" font-size="13" font-weight="bold" lengthAdjust="spacing" textLength="213" x="692.5" y="643.3872">11. Terminate local session()</text><polygon fill="#181818" points="204.5,716.5859,194.5,720.5859,204.5,724.5859,200.5,720.5859" style="stroke:#181818;stroke-width:1.0;"/><line style="stroke:#181818;stroke-width:1.0;stroke-dasharray:2.0,2.0;" x1="198.5" x2="674.5" y1="720.5859" y2="720.5859"/><text fill="#000000" font-family="sans-serif" font-size="13" font-weight="bold" lengthAdjust="spacing" textLength="180" x="210.5" y="715.52">12. Redirect to Service()</text><polygon fill="#181818" points="430.5,745.7188,440.5,749.7188,430.5,753.7188,434.5,749.7188" style="stroke:#181818;stroke-width:1.0;"/><line style="stroke:#181818;stroke-width:1.0;" x1="193.5" x2="436.5" y1="749.7188" y2="749.7188"/><text fill="#000000" font-family="sans-serif" font-size="13" font-weight="bold" lengthAdjust="spacing" textLength="206" x="200.5" y="744.6528">13. POST LogoutResponse()</text><polygon fill="#181818" points="199.5,774.8516,189.5,778.8516,199.5,782.8516,195.5,778.8516" style="stroke:#181818;stroke-width:1.0;"/><line style="stroke:#181818;stroke-width:1.0;stroke-dasharray:2.0,2.0;" x1="193.5" x2="446.5" y1="778.8516" y2="778.8516"/><text fill="#000000" font-family="sans-serif" font-size="13" font-weight="bold" lengthAdjust="spacing" textLength="225" x="205.5" y="773.7856">14. Return after-logout page()</text></g></svg>