<svg xmlns="http://www.w3.org/2000/svg" xmlns:xlink="http://www.w3.org/1999/xlink" contentStyleType="text/css" height="813px" preserveAspectRatio="none" style="width:1046px;height:813px;background:#00000000;" version="1.1" viewBox="0 0 1046 813" width="1046px" zoomAndPan="magnify"><defs/><g><rect fill="none" height="26.2969" id="_title" style="stroke:none;stroke-width:1.0;" width="68" x="488.75" y="10"/><text fill="#000000" font-family="color=#FFF" font-size="14" font-weight="bold" lengthAdjust="spacing" textLength="58" x="493.75" y="27.9951">sd_SSO</text><rect fill="#FCF2E3" height="585.7266" style="stroke:#181818;stroke-width:1.0;" width="10" x="21.5" y="128.5938"/><rect fill="#FCF2E3" height="564.5938" style="stroke:#181818;stroke-width:1.0;" width="10" x="182.5" y="149.7266"/><rect fill="#FCF2E3" height="101.2656" style="stroke:#181818;stroke-width:1.0;" width="10" x="426.5" y="178.8594"/><rect fill="#FCF2E3" height="28" style="stroke:#181818;stroke-width:1.0;" width="10" x="431.5" y="215.9922"/><rect fill="#FCF2E3" height="101.2656" style="stroke:#181818;stroke-width:1.0;" width="10" x="426.5" y="613.0547"/><rect fill="#FCF2E3" height="28" style="stroke:#181818;stroke-width:1.0;" width="10" x="431.5" y="650.1875"/><rect fill="#FCF2E3" height="65.1328" style="stroke:#181818;stroke-width:1.0;" width="10" x="727.5" y="309.2578"/><rect fill="#FCF2E3" height="28" style="stroke:#181818;stroke-width:1.0;" width="10" x="732.5" y="346.3906"/><rect fill="#FCF2E3" height="173.3984" style="stroke:#181818;stroke-width:1.0;" width="10" x="727.5" y="410.5234"/><rect fill="#FCF2E3" height="28" style="stroke:#181818;stroke-width:1.0;" width="10" x="732.5" y="447.6563"/><rect fill="#FCF2E3" height="28" style="stroke:#181818;stroke-width:1.0;" width="10" x="732.5" y="519.7891"/><line style="stroke:#181818;stroke-width:0.5;stroke-dasharray:5.0,5.0;" x1="26" x2="26" y1="118.5938" y2="732.3203"/><line style="stroke:#181818;stroke-width:0.5;stroke-dasharray:5.0,5.0;" x1="187" x2="187" y1="118.5938" y2="732.3203"/><line style="stroke:#181818;stroke-width:0.5;stroke-dasharray:5.0,5.0;" x1="431.5" x2="431.5" y1="118.5938" y2="732.3203"/><line style="stroke:#181818;stroke-width:0.5;stroke-dasharray:5.0,5.0;" x1="732" x2="732" y1="118.5938" y2="732.3203"/><text fill="#000000" font-family="sans-serif" font-size="14" font-weight="bold" lengthAdjust="spacing" textLength="37" x="5" y="115.292">User</text><ellipse cx="26.5" cy="50.7969" fill="#E2E2F0" rx="8" ry="8" style="stroke:#181818;stroke-width:0.5;"/><path d="M26.5,58.7969 L26.5,85.7969 M13.5,66.7969 L39.5,66.7969 M26.5,85.7969 L13.5,100.7969 M26.5,85.7969 L39.5,100.7969 " fill="none" style="stroke:#181818;stroke-width:0.5;"/><text fill="#000000" font-family="sans-serif" font-size="14" font-weight="bold" lengthAdjust="spacing" textLength="37" x="5" y="744.3154">User</text><ellipse cx="26.5" cy="756.1172" fill="#E2E2F0" rx="8" ry="8" style="stroke:#181818;stroke-width:0.5;"/><path d="M26.5,764.1172 L26.5,791.1172 M13.5,772.1172 L39.5,772.1172 M26.5,791.1172 L13.5,806.1172 M26.5,791.1172 L39.5,806.1172 " fill="none" style="stroke:#181818;stroke-width:0.5;"/><text fill="#000000" font-family="sans-serif" font-size="14" lengthAdjust="spacing" textLength="57" x="156" y="115.292">Browser</text><path d="M167,74.2969 L167,98.2969 M167,86.2969 L184,86.2969 " fill="none" style="stroke:#181818;stroke-width:0.5;"/><ellipse cx="196" cy="86.2969" fill="#E2E2F0" rx="12" ry="12" style="stroke:#181818;stroke-width:0.5;"/><text fill="#000000" font-family="sans-serif" font-size="14" lengthAdjust="spacing" textLength="57" x="156" y="744.3154">Browser</text><path d="M167,751.6172 L167,775.6172 M167,763.6172 L184,763.6172 " fill="none" style="stroke:#181818;stroke-width:0.5;"/><ellipse cx="196" cy="763.6172" fill="#E2E2F0" rx="12" ry="12" style="stroke:#181818;stroke-width:0.5;"/><text fill="#000000" font-family="sans-serif" font-size="14" lengthAdjust="spacing" textLength="50" x="403.5" y="115.292">Service</text><path d="M411,74.2969 L411,98.2969 M411,86.2969 L428,86.2969 " fill="none" style="stroke:#181818;stroke-width:0.5;"/><ellipse cx="440" cy="86.2969" fill="#E2E2F0" rx="12" ry="12" style="stroke:#181818;stroke-width:0.5;"/><text fill="#000000" font-family="sans-serif" font-size="14" lengthAdjust="spacing" textLength="50" x="403.5" y="744.3154">Service</text><path d="M411,751.6172 L411,775.6172 M411,763.6172 L428,763.6172 " fill="none" style="stroke:#181818;stroke-width:0.5;"/><ellipse cx="440" cy="763.6172" fill="#E2E2F0" rx="12" ry="12" style="stroke:#181818;stroke-width:0.5;"/><text fill="#000000" font-family="sans-serif" font-size="14" lengthAdjust="spacing" textLength="45" x="707" y="115.292">MPass</text><ellipse cx="732.5" cy="86.2969" fill="#E2E2F0" rx="12" ry="12" style="stroke:#181818;stroke-width:0.5;"/><polygon fill="#181818" points="728.5,74.2969,734.5,69.2969,732.5,74.2969,734.5,79.2969,728.5,74.2969" style="stroke:#181818;stroke-width:1.0;"/><text fill="#000000" font-family="sans-serif" font-size="14" lengthAdjust="spacing" textLength="45" x="707" y="744.3154">MPass</text><ellipse cx="732.5" cy="763.6172" fill="#E2E2F0" rx="12" ry="12" style="stroke:#181818;stroke-width:0.5;"/><polygon fill="#181818" points="728.5,751.6172,734.5,746.6172,732.5,751.6172,734.5,756.6172,728.5,751.6172" style="stroke:#181818;stroke-width:1.0;"/><rect fill="#FCF2E3" height="585.7266" style="stroke:#181818;stroke-width:1.0;" width="10" x="21.5" y="128.5938"/><rect fill="#FCF2E3" height="564.5938" style="stroke:#181818;stroke-width:1.0;" width="10" x="182.5" y="149.7266"/><rect fill="#FCF2E3" height="101.2656" style="stroke:#181818;stroke-width:1.0;" width="10" x="426.5" y="178.8594"/><rect fill="#FCF2E3" height="28" style="stroke:#181818;stroke-width:1.0;" width="10" x="431.5" y="215.9922"/><rect fill="#FCF2E3" height="101.2656" style="stroke:#181818;stroke-width:1.0;" width="10" x="426.5" y="613.0547"/><rect fill="#FCF2E3" height="28" style="stroke:#181818;stroke-width:1.0;" width="10" x="431.5" y="650.1875"/><rect fill="#FCF2E3" height="65.1328" style="stroke:#181818;stroke-width:1.0;" width="10" x="727.5" y="309.2578"/><rect fill="#FCF2E3" height="28" style="stroke:#181818;stroke-width:1.0;" width="10" x="732.5" y="346.3906"/><rect fill="#FCF2E3" height="173.3984" style="stroke:#181818;stroke-width:1.0;" width="10" x="727.5" y="410.5234"/><rect fill="#FCF2E3" height="28" style="stroke:#181818;stroke-width:1.0;" width="10" x="732.5" y="447.6563"/><rect fill="#FCF2E3" height="28" style="stroke:#181818;stroke-width:1.0;" width="10" x="732.5" y="519.7891"/><polygon fill="#181818" points="170.5,145.7266,180.5,149.7266,170.5,153.7266,174.5,149.7266" style="stroke:#181818;stroke-width:1.0;"/><line style="stroke:#181818;stroke-width:1.0;" x1="31.5" x2="176.5" y1="149.7266" y2="149.7266"/><text fill="#000000" font-family="sans-serif" font-size="13" font-weight="bold" lengthAdjust="spacing" textLength="132" x="38.5" y="144.6606">1. Initiate Signin()</text><polygon fill="#181818" points="414.5,174.8594,424.5,178.8594,414.5,182.8594,418.5,178.8594" style="stroke:#181818;stroke-width:1.0;"/><line style="stroke:#181818;stroke-width:1.0;" x1="192.5" x2="420.5" y1="178.8594" y2="178.8594"/><text fill="#000000" font-family="sans-serif" font-size="13" font-weight="bold" lengthAdjust="spacing" textLength="171" x="199.5" y="173.7935">Send Signing request()</text><line style="stroke:#181818;stroke-width:1.0;" x1="441.5" x2="483.5" y1="207.9922" y2="207.9922"/><line style="stroke:#181818;stroke-width:1.0;" x1="483.5" x2="483.5" y1="207.9922" y2="220.9922"/><line style="stroke:#181818;stroke-width:1.0;" x1="442.5" x2="483.5" y1="220.9922" y2="220.9922"/><polygon fill="#181818" points="452.5,216.9922,442.5,220.9922,452.5,224.9922,448.5,220.9922" style="stroke:#181818;stroke-width:1.0;"/><text fill="#000000" font-family="sans-serif" font-size="13" font-weight="bold" lengthAdjust="spacing" textLength="277" x="448.5" y="202.9263">2. Generate and sign AuthnRequest()</text><polygon fill="#181818" points="203.5,276.125,193.5,280.125,203.5,284.125,199.5,280.125" style="stroke:#181818;stroke-width:1.0;"/><line style="stroke:#181818;stroke-width:1.0;stroke-dasharray:2.0,2.0;" x1="197.5" x2="430.5" y1="280.125" y2="280.125"/><text fill="#000000" font-family="sans-serif" font-size="13" font-weight="bold" lengthAdjust="spacing" textLength="166" x="209.5" y="275.0591">3. Redirect to MPass()</text><polygon fill="#181818" points="715.5,305.2578,725.5,309.2578,715.5,313.2578,719.5,309.2578" style="stroke:#181818;stroke-width:1.0;"/><line style="stroke:#181818;stroke-width:1.0;" x1="192.5" x2="721.5" y1="309.2578" y2="309.2578"/><text fill="#000000" font-family="sans-serif" font-size="13" font-weight="bold" lengthAdjust="spacing" textLength="178" x="199.5" y="304.1919">4. POST AuthnRequest()</text><line style="stroke:#181818;stroke-width:1.0;" x1="742.5" x2="784.5" y1="338.3906" y2="338.3906"/><line style="stroke:#181818;stroke-width:1.0;" x1="784.5" x2="784.5" y1="338.3906" y2="351.3906"/><line style="stroke:#181818;stroke-width:1.0;" x1="743.5" x2="784.5" y1="351.3906" y2="351.3906"/><polygon fill="#181818" points="753.5,347.3906,743.5,351.3906,753.5,355.3906,749.5,351.3906" style="stroke:#181818;stroke-width:1.0;"/><text fill="#000000" font-family="sans-serif" font-size="13" font-weight="bold" lengthAdjust="spacing" textLength="183" x="749.5" y="333.3247">5. Verify AuthnRequest()</text><polygon fill="#181818" points="715.5,406.5234,725.5,410.5234,715.5,414.5234,719.5,410.5234" style="stroke:#181818;stroke-width:1.0;"/><line style="stroke:#181818;stroke-width:1.0;" x1="31.5" x2="721.5" y1="410.5234" y2="410.5234"/><text fill="#000000" font-family="sans-serif" font-size="13" font-weight="bold" lengthAdjust="spacing" textLength="229" x="38.5" y="405.4575">6. Authenticate (if not already)</text><line style="stroke:#181818;stroke-width:1.0;" x1="742.5" x2="784.5" y1="439.6563" y2="439.6563"/><line style="stroke:#181818;stroke-width:1.0;" x1="784.5" x2="784.5" y1="439.6563" y2="452.6563"/><line style="stroke:#181818;stroke-width:1.0;" x1="743.5" x2="784.5" y1="452.6563" y2="452.6563"/><polygon fill="#181818" points="753.5,448.6563,743.5,452.6563,753.5,456.6563,749.5,452.6563" style="stroke:#181818;stroke-width:1.0;"/><text fill="#000000" font-family="sans-serif" font-size="13" font-weight="bold" lengthAdjust="spacing" textLength="287" x="749.5" y="434.5903">Authenticate, ask and authorize User()</text><line style="stroke:#181818;stroke-width:1.0;" x1="742.5" x2="784.5" y1="511.7891" y2="511.7891"/><line style="stroke:#181818;stroke-width:1.0;" x1="784.5" x2="784.5" y1="511.7891" y2="524.7891"/><line style="stroke:#181818;stroke-width:1.0;" x1="743.5" x2="784.5" y1="524.7891" y2="524.7891"/><polygon fill="#181818" points="753.5,520.7891,743.5,524.7891,753.5,528.7891,749.5,524.7891" style="stroke:#181818;stroke-width:1.0;"/><text fill="#000000" font-family="sans-serif" font-size="13" font-weight="bold" lengthAdjust="spacing" textLength="290" x="749.5" y="506.7231">7. Generate and sign SAML Response()</text><polygon fill="#181818" points="203.5,579.9219,193.5,583.9219,203.5,587.9219,199.5,583.9219" style="stroke:#181818;stroke-width:1.0;"/><line style="stroke:#181818;stroke-width:1.0;stroke-dasharray:2.0,2.0;" x1="197.5" x2="731.5" y1="583.9219" y2="583.9219"/><text fill="#000000" font-family="sans-serif" font-size="13" font-weight="bold" lengthAdjust="spacing" textLength="171" x="209.5" y="578.856">8. Redirect to Service()</text><polygon fill="#181818" points="414.5,609.0547,424.5,613.0547,414.5,617.0547,418.5,613.0547" style="stroke:#181818;stroke-width:1.0;"/><line style="stroke:#181818;stroke-width:1.0;" x1="192.5" x2="420.5" y1="613.0547" y2="613.0547"/><text fill="#000000" font-family="sans-serif" font-size="13" font-weight="bold" lengthAdjust="spacing" textLength="146" x="199.5" y="607.9888">9. POST Response()</text><line style="stroke:#181818;stroke-width:1.0;" x1="441.5" x2="483.5" y1="642.1875" y2="642.1875"/><line style="stroke:#181818;stroke-width:1.0;" x1="483.5" x2="483.5" y1="642.1875" y2="655.1875"/><line style="stroke:#181818;stroke-width:1.0;" x1="442.5" x2="483.5" y1="655.1875" y2="655.1875"/><polygon fill="#181818" points="452.5,651.1875,442.5,655.1875,452.5,659.1875,448.5,655.1875" style="stroke:#181818;stroke-width:1.0;"/><text fill="#000000" font-family="sans-serif" font-size="13" font-weight="bold" lengthAdjust="spacing" textLength="205" x="448.5" y="637.1216">10. Verify SAML Response()</text><polygon fill="#181818" points="198.5,710.3203,188.5,714.3203,198.5,718.3203,194.5,714.3203" style="stroke:#181818;stroke-width:1.0;"/><line style="stroke:#181818;stroke-width:1.0;stroke-dasharray:2.0,2.0;" x1="192.5" x2="430.5" y1="714.3203" y2="714.3203"/><text fill="#000000" font-family="sans-serif" font-size="13" font-weight="bold" lengthAdjust="spacing" textLength="210" x="204.5" y="709.2544">11. Return protected page()</text></g></svg>