<svg xmlns="http://www.w3.org/2000/svg" xmlns:xlink="http://www.w3.org/1999/xlink" contentStyleType="text/css" height="469px" preserveAspectRatio="none" style="width:925px;height:469px;background:#00000000;" version="1.1" viewBox="0 0 925 469" width="925px" zoomAndPan="magnify"><defs/><g><rect fill="#FCF2E3" height="50.2656" style="stroke:#181818;stroke-width:1.0;" width="10" x="52" y="46.2969"/><rect fill="#FCF2E3" height="58.2656" style="stroke:#181818;stroke-width:1.0;" width="10" x="268" y="67.4297"/><rect fill="#FCF2E3" height="270.6641" style="stroke:#181818;stroke-width:1.0;" width="10" x="376" y="154.8281"/><rect fill="#FCF2E3" height="28" style="stroke:#181818;stroke-width:1.0;" width="10" x="381" y="191.9609"/><rect fill="#FCF2E3" height="363.1953" style="stroke:#181818;stroke-width:1.0;" width="10" x="546" y="46.2969"/><rect fill="#FCF2E3" height="30" style="stroke:#181818;stroke-width:1.0;" width="10" x="628.5" y="285.2266"/><rect fill="#FCF2E3" height="65.1328" style="stroke:#181818;stroke-width:1.0;" width="10" x="787" y="344.3594"/><rect fill="#FCF2E3" height="28" style="stroke:#181818;stroke-width:1.0;" width="10" x="792" y="381.4922"/><line style="stroke:#181818;stroke-width:0.5;stroke-dasharray:5.0,5.0;" x1="57" x2="57" y1="36.2969" y2="434.4922"/><line style="stroke:#181818;stroke-width:0.5;stroke-dasharray:5.0,5.0;" x1="272.5" x2="272.5" y1="36.2969" y2="434.4922"/><line style="stroke:#181818;stroke-width:0.5;stroke-dasharray:5.0,5.0;" x1="380.5" x2="380.5" y1="36.2969" y2="434.4922"/><line style="stroke:#181818;stroke-width:0.5;stroke-dasharray:5.0,5.0;" x1="551" x2="551" y1="36.2969" y2="434.4922"/><line style="stroke:#181818;stroke-width:0.5;stroke-dasharray:5.0,5.0;" x1="633" x2="633" y1="36.2969" y2="434.4922"/><line style="stroke:#181818;stroke-width:0.5;stroke-dasharray:5.0,5.0;" x1="792" x2="792" y1="36.2969" y2="434.4922"/><rect fill="#FCF2E3" height="30.2969" rx="2.5" ry="2.5" style="stroke:#181818;stroke-width:0.5;" width="104" x="5" y="5"/><text fill="#000000" font-family="sans-serif" font-size="14" font-weight="bold" lengthAdjust="spacing" textLength="90" x="12" y="24.9951">3rd System</text><rect fill="#FCF2E3" height="30.2969" rx="2.5" ry="2.5" style="stroke:#181818;stroke-width:0.5;" width="104" x="5" y="433.4922"/><text fill="#000000" font-family="sans-serif" font-size="14" font-weight="bold" lengthAdjust="spacing" textLength="90" x="12" y="453.4873">3rd System</text><rect fill="#FCF2E3" height="30.2969" rx="2.5" ry="2.5" style="stroke:#181818;stroke-width:0.5;" width="113" x="216.5" y="5"/><text fill="#000000" font-family="sans-serif" font-size="14" font-weight="bold" lengthAdjust="spacing" textLength="99" x="223.5" y="24.9951">API Gateway</text><rect fill="#FCF2E3" height="30.2969" rx="2.5" ry="2.5" style="stroke:#181818;stroke-width:0.5;" width="113" x="216.5" y="433.4922"/><text fill="#000000" font-family="sans-serif" font-size="14" font-weight="bold" lengthAdjust="spacing" textLength="99" x="223.5" y="453.4873">API Gateway</text><rect fill="#FCF2E3" height="30.2969" rx="2.5" ry="2.5" style="stroke:#181818;stroke-width:0.5;" width="83" x="339.5" y="5"/><text fill="#000000" font-family="sans-serif" font-size="14" font-weight="bold" lengthAdjust="spacing" textLength="69" x="346.5" y="24.9951">Resolver</text><rect fill="#FCF2E3" height="30.2969" rx="2.5" ry="2.5" style="stroke:#181818;stroke-width:0.5;" width="83" x="339.5" y="433.4922"/><text fill="#000000" font-family="sans-serif" font-size="14" font-weight="bold" lengthAdjust="spacing" textLength="69" x="346.5" y="453.4873">Resolver</text><rect fill="#FCF2E3" height="30.2969" rx="2.5" ry="2.5" style="stroke:#181818;stroke-width:0.5;" width="58" x="522" y="5"/><text fill="#000000" font-family="sans-serif" font-size="14" font-weight="bold" lengthAdjust="spacing" textLength="44" x="529" y="24.9951">Kafka</text><rect fill="#FCF2E3" height="30.2969" rx="2.5" ry="2.5" style="stroke:#181818;stroke-width:0.5;" width="58" x="522" y="433.4922"/><text fill="#000000" font-family="sans-serif" font-size="14" font-weight="bold" lengthAdjust="spacing" textLength="44" x="529" y="453.4873">Kafka</text><rect fill="#FCF2E3" height="30.2969" rx="2.5" ry="2.5" style="stroke:#181818;stroke-width:0.5;" width="87" x="590" y="5"/><text fill="#000000" font-family="sans-serif" font-size="14" font-weight="bold" lengthAdjust="spacing" textLength="73" x="597" y="24.9951">Database</text><rect fill="#FCF2E3" height="30.2969" rx="2.5" ry="2.5" style="stroke:#181818;stroke-width:0.5;" width="87" x="590" y="433.4922"/><text fill="#000000" font-family="sans-serif" font-size="14" font-weight="bold" lengthAdjust="spacing" textLength="73" x="597" y="453.4873">Database</text><rect fill="#FCF2E3" height="30.2969" rx="2.5" ry="2.5" style="stroke:#181818;stroke-width:0.5;" width="142" x="721" y="5"/><text fill="#000000" font-family="sans-serif" font-size="14" font-weight="bold" lengthAdjust="spacing" textLength="128" x="728" y="24.9951">MessageWorker</text><rect fill="#FCF2E3" height="30.2969" rx="2.5" ry="2.5" style="stroke:#181818;stroke-width:0.5;" width="142" x="721" y="433.4922"/><text fill="#000000" font-family="sans-serif" font-size="14" font-weight="bold" lengthAdjust="spacing" textLength="128" x="728" y="453.4873">MessageWorker</text><rect fill="#FCF2E3" height="50.2656" style="stroke:#181818;stroke-width:1.0;" width="10" x="52" y="46.2969"/><rect fill="#FCF2E3" height="58.2656" style="stroke:#181818;stroke-width:1.0;" width="10" x="268" y="67.4297"/><rect fill="#FCF2E3" height="270.6641" style="stroke:#181818;stroke-width:1.0;" width="10" x="376" y="154.8281"/><rect fill="#FCF2E3" height="28" style="stroke:#181818;stroke-width:1.0;" width="10" x="381" y="191.9609"/><rect fill="#FCF2E3" height="363.1953" style="stroke:#181818;stroke-width:1.0;" width="10" x="546" y="46.2969"/><rect fill="#FCF2E3" height="30" style="stroke:#181818;stroke-width:1.0;" width="10" x="628.5" y="285.2266"/><rect fill="#FCF2E3" height="65.1328" style="stroke:#181818;stroke-width:1.0;" width="10" x="787" y="344.3594"/><rect fill="#FCF2E3" height="28" style="stroke:#181818;stroke-width:1.0;" width="10" x="792" y="381.4922"/><polygon fill="#181818" points="256,63.4297,266,67.4297,256,71.4297,260,67.4297" style="stroke:#181818;stroke-width:1.0;"/><line style="stroke:#181818;stroke-width:1.0;" x1="62" x2="262" y1="67.4297" y2="67.4297"/><text fill="#000000" font-family="sans-serif" font-size="13" font-weight="bold" lengthAdjust="spacing" textLength="187" x="69" y="62.3638">Request post notification</text><polygon fill="#181818" points="68,92.5625,58,96.5625,68,100.5625,64,96.5625" style="stroke:#181818;stroke-width:1.0;"/><line style="stroke:#181818;stroke-width:1.0;stroke-dasharray:2.0,2.0;" x1="62" x2="267" y1="96.5625" y2="96.5625"/><text fill="#000000" font-family="sans-serif" font-size="13" font-weight="bold" lengthAdjust="spacing" textLength="102" x="74" y="91.4966">:notificationId</text><polygon fill="#181818" points="534,121.6953,544,125.6953,534,129.6953,538,125.6953" style="stroke:#181818;stroke-width:1.0;"/><line style="stroke:#181818;stroke-width:1.0;" x1="273" x2="540" y1="125.6953" y2="125.6953"/><text fill="#000000" font-family="sans-serif" font-size="13" font-weight="bold" lengthAdjust="spacing" textLength="107" x="280" y="120.6294">Push to queue</text><polygon fill="#181818" points="534,150.8281,544,154.8281,534,158.8281,538,154.8281" style="stroke:#181818;stroke-width:1.0;"/><line style="stroke:#181818;stroke-width:1.0;" x1="386" x2="540" y1="154.8281" y2="154.8281"/><text fill="#000000" font-family="sans-serif" font-size="13" font-weight="bold" lengthAdjust="spacing" textLength="129" x="393" y="149.7622">Read from queue</text><line style="stroke:#181818;stroke-width:1.0;" x1="391" x2="433" y1="183.9609" y2="183.9609"/><line style="stroke:#181818;stroke-width:1.0;" x1="433" x2="433" y1="183.9609" y2="196.9609"/><line style="stroke:#181818;stroke-width:1.0;" x1="392" x2="433" y1="196.9609" y2="196.9609"/><polygon fill="#181818" points="402,192.9609,392,196.9609,402,200.9609,398,196.9609" style="stroke:#181818;stroke-width:1.0;"/><text fill="#000000" font-family="sans-serif" font-size="13" font-weight="bold" lengthAdjust="spacing" textLength="126" x="398" y="178.895">Identify channels</text><polygon fill="#181818" points="534,252.0938,544,256.0938,534,260.0938,538,256.0938" style="stroke:#181818;stroke-width:1.0;"/><line style="stroke:#181818;stroke-width:1.0;" x1="386" x2="540" y1="256.0938" y2="256.0938"/><text fill="#000000" font-family="sans-serif" font-size="13" font-weight="bold" lengthAdjust="spacing" textLength="136" x="393" y="251.0278">:Push N-Messages</text><polygon fill="#181818" points="616.5,281.2266,626.5,285.2266,616.5,289.2266,620.5,285.2266" style="stroke:#181818;stroke-width:1.0;"/><line style="stroke:#181818;stroke-width:1.0;" x1="386" x2="622.5" y1="285.2266" y2="285.2266"/><text fill="#000000" font-family="sans-serif" font-size="13" font-weight="bold" lengthAdjust="spacing" textLength="166" x="393" y="280.1606">Write for IDNx channel</text><polygon fill="#181818" points="567,340.3594,557,344.3594,567,348.3594,563,344.3594" style="stroke:#181818;stroke-width:1.0;"/><line style="stroke:#181818;stroke-width:1.0;" x1="561" x2="786" y1="344.3594" y2="344.3594"/><text fill="#000000" font-family="sans-serif" font-size="13" font-weight="bold" lengthAdjust="spacing" textLength="212" x="573" y="339.2935">read N-Message from queue</text><line style="stroke:#181818;stroke-width:1.0;" x1="802" x2="844" y1="373.4922" y2="373.4922"/><line style="stroke:#181818;stroke-width:1.0;" x1="844" x2="844" y1="373.4922" y2="386.4922"/><line style="stroke:#181818;stroke-width:1.0;" x1="803" x2="844" y1="386.4922" y2="386.4922"/><polygon fill="#181818" points="813,382.4922,803,386.4922,813,390.4922,809,386.4922" style="stroke:#181818;stroke-width:1.0;"/><text fill="#000000" font-family="sans-serif" font-size="13" font-weight="bold" lengthAdjust="spacing" textLength="109" x="809" y="368.4263">Send message</text></g></svg>