<svg xmlns="http://www.w3.org/2000/svg" xmlns:xlink="http://www.w3.org/1999/xlink" contentStyleType="text/css" height="441px" preserveAspectRatio="none" style="width:445px;height:441px;background:#00000000;" version="1.1" viewBox="0 0 445 441" width="445px" zoomAndPan="magnify"><defs/><g><rect fill="#FCF2E3" height="350.1953" style="stroke:#181818;stroke-width:1.0;" width="10" x="55.5" y="46.2969"/><rect fill="#FCF2E3" height="28" style="stroke:#181818;stroke-width:1.0;" width="10" x="60.5" y="245.2266"/><rect fill="#FCF2E3" height="28" style="stroke:#181818;stroke-width:1.0;" width="10" x="60.5" y="317.3594"/><rect fill="#FCF2E3" height="350.1953" style="stroke:#181818;stroke-width:1.0;" width="10" x="247.5" y="46.2969"/><rect fill="#FCF2E3" height="202.5313" style="stroke:#181818;stroke-width:1.0;" width="10" x="375.5" y="178.9609"/><rect fill="none" height="307.0625" style="stroke:#000000;stroke-width:1.5;" width="429" x="10" y="82.4297"/><line style="stroke:#181818;stroke-width:0.5;stroke-dasharray:5.0,5.0;" x1="60" x2="60" y1="36.2969" y2="406.4922"/><line style="stroke:#181818;stroke-width:0.5;stroke-dasharray:5.0,5.0;" x1="252" x2="252" y1="36.2969" y2="406.4922"/><line style="stroke:#181818;stroke-width:0.5;stroke-dasharray:5.0,5.0;" x1="380" x2="380" y1="36.2969" y2="406.4922"/><rect fill="#FCF2E3" height="30.2969" rx="2.5" ry="2.5" style="stroke:#181818;stroke-width:0.5;" width="81" x="20" y="5"/><text fill="#000000" font-family="sans-serif" font-size="14" font-weight="bold" lengthAdjust="spacing" textLength="67" x="27" y="24.9951">Program</text><rect fill="#FCF2E3" height="30.2969" rx="2.5" ry="2.5" style="stroke:#181818;stroke-width:0.5;" width="81" x="20" y="405.4922"/><text fill="#000000" font-family="sans-serif" font-size="14" font-weight="bold" lengthAdjust="spacing" textLength="67" x="27" y="425.4873">Program</text><rect fill="#FCF2E3" height="30.2969" rx="2.5" ry="2.5" style="stroke:#181818;stroke-width:0.5;" width="139" x="183" y="5"/><text fill="#000000" font-family="sans-serif" font-size="14" font-weight="bold" lengthAdjust="spacing" textLength="125" x="190" y="24.9951">KafkaConsumer</text><rect fill="#FCF2E3" height="30.2969" rx="2.5" ry="2.5" style="stroke:#181818;stroke-width:0.5;" width="139" x="183" y="405.4922"/><text fill="#000000" font-family="sans-serif" font-size="14" font-weight="bold" lengthAdjust="spacing" textLength="125" x="190" y="425.4873">KafkaConsumer</text><rect fill="#FCF2E3" height="30.2969" rx="2.5" ry="2.5" style="stroke:#181818;stroke-width:0.5;" width="97" x="332" y="5"/><text fill="#000000" font-family="sans-serif" font-size="14" font-weight="bold" lengthAdjust="spacing" textLength="83" x="339" y="24.9951">DbContext</text><rect fill="#FCF2E3" height="30.2969" rx="2.5" ry="2.5" style="stroke:#181818;stroke-width:0.5;" width="97" x="332" y="405.4922"/><text fill="#000000" font-family="sans-serif" font-size="14" font-weight="bold" lengthAdjust="spacing" textLength="83" x="339" y="425.4873">DbContext</text><rect fill="#FCF2E3" height="350.1953" style="stroke:#181818;stroke-width:1.0;" width="10" x="55.5" y="46.2969"/><rect fill="#FCF2E3" height="28" style="stroke:#181818;stroke-width:1.0;" width="10" x="60.5" y="245.2266"/><rect fill="#FCF2E3" height="28" style="stroke:#181818;stroke-width:1.0;" width="10" x="60.5" y="317.3594"/><rect fill="#FCF2E3" height="350.1953" style="stroke:#181818;stroke-width:1.0;" width="10" x="247.5" y="46.2969"/><rect fill="#FCF2E3" height="202.5313" style="stroke:#181818;stroke-width:1.0;" width="10" x="375.5" y="178.9609"/><polygon fill="#181818" points="235.5,63.4297,245.5,67.4297,235.5,71.4297,239.5,67.4297" style="stroke:#181818;stroke-width:1.0;"/><line style="stroke:#181818;stroke-width:1.0;" x1="65.5" x2="241.5" y1="67.4297" y2="67.4297"/><text fill="#000000" font-family="sans-serif" font-size="13" font-weight="bold" lengthAdjust="spacing" textLength="85" x="72.5" y="62.3638">Subscribe()</text><path d="M10,82.4297 L166,82.4297 L166,89.5625 L156,99.5625 L10,99.5625 L10,82.4297 " fill="#EEEEEE" style="stroke:#000000;stroke-width:1.5;"/><rect fill="none" height="307.0625" style="stroke:#000000;stroke-width:1.5;" width="429" x="10" y="82.4297"/><text fill="#000000" font-family="sans-serif" font-size="13" font-weight="bold" lengthAdjust="spacing" textLength="111" x="25" y="95.4966">Consumer loop</text><polygon fill="#181818" points="235.5,116.6953,245.5,120.6953,235.5,124.6953,239.5,120.6953" style="stroke:#181818;stroke-width:1.0;"/><line style="stroke:#181818;stroke-width:1.0;" x1="65.5" x2="241.5" y1="120.6953" y2="120.6953"/><text fill="#000000" font-family="sans-serif" font-size="13" font-weight="bold" lengthAdjust="spacing" textLength="80" x="72.5" y="115.6294">Consume()</text><polygon fill="#181818" points="76.5,145.8281,66.5,149.8281,76.5,153.8281,72.5,149.8281" style="stroke:#181818;stroke-width:1.0;"/><line style="stroke:#181818;stroke-width:1.0;stroke-dasharray:2.0,2.0;" x1="70.5" x2="246.5" y1="149.8281" y2="149.8281"/><text fill="#000000" font-family="sans-serif" font-size="13" font-weight="bold" lengthAdjust="spacing" textLength="71" x="82.5" y="144.7622">:Message</text><polygon fill="#181818" points="363.5,174.9609,373.5,178.9609,363.5,182.9609,367.5,178.9609" style="stroke:#181818;stroke-width:1.0;"/><line style="stroke:#181818;stroke-width:1.0;" x1="65.5" x2="369.5" y1="178.9609" y2="178.9609"/><text fill="#000000" font-family="sans-serif" font-size="13" font-weight="bold" lengthAdjust="spacing" textLength="260" x="72.5" y="173.895">GetNotificationMetadata(Message)</text><polygon fill="#181818" points="76.5,204.0938,66.5,208.0938,76.5,212.0938,72.5,208.0938" style="stroke:#181818;stroke-width:1.0;"/><line style="stroke:#181818;stroke-width:1.0;stroke-dasharray:2.0,2.0;" x1="70.5" x2="374.5" y1="208.0938" y2="208.0938"/><text fill="#000000" font-family="sans-serif" font-size="13" font-weight="bold" lengthAdjust="spacing" textLength="161" x="82.5" y="203.0278">:NotificationMetadata</text><line style="stroke:#181818;stroke-width:1.0;" x1="70.5" x2="112.5" y1="237.2266" y2="237.2266"/><line style="stroke:#181818;stroke-width:1.0;" x1="112.5" x2="112.5" y1="237.2266" y2="250.2266"/><line style="stroke:#181818;stroke-width:1.0;" x1="71.5" x2="112.5" y1="250.2266" y2="250.2266"/><polygon fill="#181818" points="81.5,246.2266,71.5,250.2266,81.5,254.2266,77.5,250.2266" style="stroke:#181818;stroke-width:1.0;"/><text fill="#000000" font-family="sans-serif" font-size="13" font-weight="bold" lengthAdjust="spacing" textLength="149" x="77.5" y="232.1606">SetMessageStatus()</text><line style="stroke:#181818;stroke-width:1.0;" x1="70.5" x2="112.5" y1="309.3594" y2="309.3594"/><line style="stroke:#181818;stroke-width:1.0;" x1="112.5" x2="112.5" y1="309.3594" y2="322.3594"/><line style="stroke:#181818;stroke-width:1.0;" x1="71.5" x2="112.5" y1="322.3594" y2="322.3594"/><polygon fill="#181818" points="81.5,318.3594,71.5,322.3594,81.5,326.3594,77.5,322.3594" style="stroke:#181818;stroke-width:1.0;"/><text fill="#000000" font-family="sans-serif" font-size="13" font-weight="bold" lengthAdjust="spacing" textLength="168" x="77.5" y="304.2935">SetNotificationStatus()</text><polygon fill="#181818" points="368.5,377.4922,378.5,381.4922,368.5,385.4922,372.5,381.4922" style="stroke:#181818;stroke-width:1.0;"/><line style="stroke:#181818;stroke-width:1.0;" x1="65.5" x2="374.5" y1="381.4922" y2="381.4922"/><text fill="#000000" font-family="sans-serif" font-size="13" font-weight="bold" lengthAdjust="spacing" textLength="127" x="72.5" y="376.4263">PersistChanges()</text></g></svg>